<svg width="48" height="48" viewBox="0 0 48 48" fill="none" xmlns="http://www.w3.org/2000/svg">
<g clip-path="url(#clip0)">
<path d="M17.5953 6.74431L16.1406 7.53157C15.8808 7.67227 15.7155 7.94102 15.7074 8.23657C15.6992 8.53175 15.8492 8.80943 16.1012 8.96428C16.3528 9.11875 16.6681 9.12768 16.9283 8.98698L18.3825 8.19972C18.7845 7.98234 18.9338 7.48021 18.7164 7.0782C18.4991 6.67657 17.9969 6.52693 17.5953 6.74431Z" fill="url(#paint0_linear)"/>
<path d="M12.1702 11.4492C12.3076 11.4492 12.4427 11.415 12.5633 11.3495L14.0176 10.5615C14.4084 10.3385 14.5495 9.84418 14.3351 9.4485C14.1207 9.05283 13.6293 8.9017 13.2292 9.10754L11.7753 9.89592C11.4425 10.0765 11.275 10.4595 11.3684 10.8265C11.4615 11.1931 11.7917 11.4496 12.1702 11.4496V11.4492Z" fill="url(#paint1_linear)"/>
<path d="M34.0156 10.5611L35.4696 11.3495C35.7297 11.4976 36.0499 11.4935 36.3063 11.3387C36.5624 11.1838 36.715 10.9024 36.705 10.6032C36.6949 10.3035 36.5237 10.0333 36.2576 9.89592L34.8036 9.10754C34.4035 8.9017 33.9122 9.05283 33.6978 9.4485C33.4834 9.84418 33.6244 10.3385 34.0153 10.5615L34.0156 10.5611Z" fill="url(#paint2_linear)"/>
<path d="M30.4407 6.74341C30.0391 6.52603 29.537 6.67529 29.3196 7.0773C29.1022 7.4793 29.2515 7.98144 29.6535 8.19882L31.1078 8.98608C31.5098 9.20346 32.0119 9.05382 32.2293 8.65182C32.4467 8.25019 32.297 7.74805 31.895 7.53067L30.4407 6.74341Z" fill="url(#paint3_linear)"/>
<path d="M13.2299 38.9951C13.6297 39.201 14.1214 39.0498 14.3358 38.6542C14.5502 38.2585 14.4091 37.7642 14.0179 37.5412L12.564 36.7528C12.3038 36.6047 11.9837 36.6088 11.7272 36.7636C11.4708 36.9185 11.3185 37.1999 11.3286 37.4995C11.3386 37.7988 11.5099 38.0694 11.776 38.2064L13.2299 38.9951Z" fill="url(#paint4_linear)"/>
<path d="M18.3787 39.9036L16.9244 39.1164C16.5224 38.899 16.0203 39.0486 15.8029 39.4506C15.5855 39.8523 15.7352 40.3544 16.1368 40.5718L17.5915 41.359C17.9931 41.5768 18.4952 41.4272 18.7126 41.0252C18.93 40.6235 18.7807 40.1214 18.3787 39.904V39.9036Z" fill="url(#paint5_linear)"/>
<path d="M47.9971 14.9545C48.0042 13.2128 46.9143 11.6547 45.2757 11.0639C43.6372 10.4732 41.8043 10.9772 40.6981 12.3228C40.6735 12.299 40.6475 12.2774 40.6199 12.2573L39.1656 11.4697C38.7636 11.2523 38.2615 11.4019 38.0441 11.8039C37.8267 12.2059 37.9764 12.7077 38.3784 12.9251L39.8327 13.7127C39.8636 13.7269 39.8952 13.7391 39.9276 13.7492C39.692 14.4445 39.6644 15.1938 39.8483 15.9044C39.8185 15.9096 39.7891 15.9167 39.7601 15.9252L31.1892 19.8541C31.1758 19.86 31.168 19.872 31.1549 19.8787L31.1527 19.8746C29.819 17.5921 27.4736 16.0857 24.8431 15.8229H24.8349C24.8356 15.8084 24.8431 15.7961 24.8431 15.7812V8.33887C24.8394 8.31133 24.8338 8.28416 24.8267 8.25735C26.9112 7.84083 28.3401 5.91121 28.131 3.79584C27.9214 1.6801 26.1421 0.0683594 24.0164 0.0683594C21.8906 0.0683594 20.1113 1.6801 19.9018 3.79584C19.6926 5.91121 21.1215 7.84083 23.206 8.25735C23.1989 8.28416 23.1934 8.31133 23.1893 8.33887V15.7812C23.1893 15.7961 23.1971 15.808 23.1978 15.8229H23.1893C20.5591 16.0857 18.2133 17.5921 16.88 19.8746L16.8778 19.8787C16.8651 19.872 16.8569 19.8597 16.8439 19.8537L8.27302 15.9252C8.24398 15.9163 8.21458 15.9096 8.1848 15.9044C8.36831 15.1934 8.34076 14.4445 8.10514 13.7492C8.13753 13.7388 8.16917 13.7265 8.20006 13.7123L9.65472 12.9251C10.0564 12.7077 10.206 12.2056 9.98861 11.8036C9.77123 11.4019 9.2691 11.2523 8.86709 11.4697L7.4128 12.2569C7.38525 12.277 7.3592 12.299 7.33463 12.3224C6.17477 10.9266 4.23882 10.4524 2.56491 11.154C0.891382 11.856 -0.127404 13.569 0.05536 15.3751C0.238123 17.1808 1.57926 18.6551 3.35962 19.0073C3.35292 19.0341 3.34734 19.0616 3.34324 19.0892V20.743C3.34324 21.1997 3.71361 21.5697 4.17033 21.5697C4.62668 21.5697 4.99705 21.1997 4.99705 20.743V19.0892C4.99295 19.0616 4.98737 19.0341 4.98067 19.0073C5.99908 18.8011 6.9021 18.2178 7.50921 17.3743C7.53303 17.394 7.55797 17.4123 7.58365 17.4287L16.1546 21.3575C16.168 21.3635 16.1821 21.3612 16.1955 21.3664L16.1936 21.3713C15.5981 23.1077 15.5981 24.9934 16.1936 26.7299L16.1955 26.7343C16.1821 26.7395 16.168 26.7377 16.1549 26.7436L7.58402 30.6725C7.55834 30.6892 7.5334 30.7071 7.50958 30.7268C6.47702 29.2852 4.6412 28.661 2.94384 29.1739C1.24611 29.6872 0.063549 31.2238 0.00250377 32.9959C-0.0589137 34.7681 1.01459 36.3828 2.67249 37.0119C4.33039 37.641 6.20492 37.1452 7.33463 35.7787C7.35957 35.8022 7.38563 35.8237 7.41317 35.8438L8.86746 36.6315C9.26947 36.8489 9.7716 36.6992 9.98898 36.2972C10.2064 35.8956 10.0567 35.3935 9.65472 35.1761L8.20043 34.3888C8.16879 34.3769 8.13641 34.3669 8.10328 34.3594C8.34113 33.6615 8.36942 32.9092 8.18443 32.1953C8.2142 32.1904 8.24398 32.1841 8.27302 32.1759L16.8439 28.2471C16.8573 28.2411 16.8651 28.2292 16.8782 28.2225L16.8804 28.2262C18.2137 30.5091 20.5591 32.0151 23.1893 32.2787H23.1978C23.1971 32.2928 23.1893 32.3051 23.1893 32.32V39.7623C23.1934 39.7898 23.1989 39.817 23.206 39.8438C21.1215 40.2607 19.6926 42.1899 19.9018 44.3053C20.1113 46.4211 21.8906 48.0328 24.0164 48.0328C26.1421 48.0328 27.9214 46.4211 28.131 44.3053C28.3401 42.1899 26.9112 40.2607 24.8267 39.8438C24.8338 39.817 24.8394 39.7898 24.8431 39.7623V32.32C24.8431 32.3055 24.8356 32.2932 24.8349 32.2787H24.8431C27.4736 32.0155 29.819 30.5091 31.1527 28.2266L31.1549 28.2225C31.1676 28.2292 31.1758 28.2415 31.1888 28.2474L39.7597 32.1763C39.7891 32.1841 39.8185 32.1908 39.8487 32.1957C39.6637 32.9092 39.692 33.6615 39.9298 34.3594C39.8967 34.3669 39.8643 34.3769 39.8327 34.3888L38.378 35.1761C37.9764 35.3935 37.8267 35.8956 38.0441 36.2976C38.2615 36.6992 38.7636 36.8489 39.1653 36.6315L40.6199 35.8442C40.6475 35.8241 40.6735 35.8022 40.6981 35.7787C41.8263 37.1358 43.6927 37.6257 45.342 36.997C46.9913 36.3687 48.0585 34.761 47.9975 32.9971C47.9364 31.2334 46.7605 29.7036 45.0718 29.1903C43.383 28.6774 41.555 29.2949 40.5231 30.7268C40.4997 30.7075 40.4748 30.6892 40.4491 30.6725L31.8782 26.744C31.8648 26.7377 31.8506 26.7395 31.8376 26.7343L31.8391 26.7299C32.4343 24.9934 32.4343 23.1077 31.8391 21.3713L31.8372 21.3664C31.8503 21.3612 31.8648 21.3635 31.8778 21.3575L40.4487 17.4287C40.4744 17.4123 40.4993 17.394 40.5231 17.3743C41.1302 18.2178 42.0336 18.8011 43.0521 19.0073C43.045 19.0341 43.0398 19.0616 43.0357 19.0892V20.743C43.0357 21.1997 43.4057 21.5697 43.8624 21.5697C44.3191 21.5697 44.6895 21.1997 44.6895 20.743V19.0892C44.6854 19.0616 44.6798 19.0341 44.6727 19.0073C46.6053 18.6213 47.9967 16.925 47.9971 14.9545ZM20.7087 19.9159H27.324C27.7807 19.9159 28.1511 20.2862 28.1511 20.743C28.1511 21.1997 27.7807 21.5697 27.324 21.5697H20.7087C20.252 21.5697 19.8817 21.1997 19.8817 20.743C19.8817 20.2862 20.252 19.9159 20.7087 19.9159ZM24.0164 28.1853H20.7087C20.252 28.1853 19.8817 27.8149 19.8817 27.3582C19.8817 26.9015 20.252 26.5315 20.7087 26.5315H24.0164C24.4731 26.5315 24.8431 26.9015 24.8431 27.3582C24.8431 27.8149 24.4731 28.1853 24.0164 28.1853ZM29.8049 24.8777H19.0549C18.5982 24.8777 18.2279 24.5073 18.2279 24.0506C18.2279 23.5939 18.5982 23.2235 19.0549 23.2235H29.8049C30.2616 23.2235 30.6316 23.5939 30.6316 24.0506C30.6316 24.5073 30.2616 24.8777 29.8049 24.8777Z" fill="url(#paint6_linear)"/>
<path d="M34.4093 39.0951C34.5467 39.0947 34.6821 39.0604 34.8027 38.9949L36.2567 38.2066C36.5183 38.067 36.6851 37.7975 36.6937 37.5012C36.7022 37.2045 36.5511 36.9261 36.298 36.7716C36.0449 36.6172 35.7285 36.6097 35.4687 36.7526L34.0144 37.541C33.682 37.7212 33.5145 38.1046 33.6075 38.4712C33.7006 38.8382 34.0311 39.0947 34.4093 39.0947V39.0951Z" fill="url(#paint7_linear)"/>
<path d="M31.1078 39.1165L29.6535 39.9037C29.2515 40.1211 29.1022 40.6232 29.3196 41.0252C29.537 41.4269 30.0391 41.5765 30.4407 41.3591L31.895 40.5719C32.297 40.3545 32.4467 39.8524 32.2293 39.4503C32.0119 39.0483 31.5098 38.8991 31.1078 39.1165Z" fill="url(#paint8_linear)"/>
<path d="M43.8619 23.2246C43.4052 23.2246 43.0352 23.595 43.0352 24.0517V25.7055C43.0352 26.1622 43.4052 26.5326 43.8619 26.5326C44.3186 26.5326 44.689 26.1622 44.689 25.7055V24.0517C44.689 23.595 44.3186 23.2246 43.8619 23.2246Z" fill="url(#paint9_linear)"/>
<path d="M4.99755 25.7055V24.0517C4.99755 23.595 4.62719 23.2246 4.17084 23.2246C3.71412 23.2246 3.34375 23.595 3.34375 24.0517V25.7055C3.34375 26.1622 3.71412 26.5326 4.17084 26.5326C4.62719 26.5326 4.99755 26.1622 4.99755 25.7055Z" fill="url(#paint10_linear)"/>
</g>
<defs>
<linearGradient id="paint0_linear" x1="16.3733" y1="6.64453" x2="17.056" y2="8.97752" gradientUnits="userSpaceOnUse">
<stop stop-color="#F46196"/>
<stop offset="1" stop-color="#DC1616"/>
</linearGradient>
<linearGradient id="paint1_linear" x1="12.0054" y1="9.01563" x2="12.687" y2="11.3401" gradientUnits="userSpaceOnUse">
<stop stop-color="#F46196"/>
<stop offset="1" stop-color="#DC1616"/>
</linearGradient>
<linearGradient id="paint2_linear" x1="34.2636" y1="9.01563" x2="34.9466" y2="11.3485" gradientUnits="userSpaceOnUse">
<stop stop-color="#F46196"/>
<stop offset="1" stop-color="#DC1616"/>
</linearGradient>
<linearGradient id="paint3_linear" x1="29.886" y1="6.64355" x2="30.5688" y2="8.97671" gradientUnits="userSpaceOnUse">
<stop stop-color="#F46196"/>
<stop offset="1" stop-color="#DC1616"/>
</linearGradient>
<linearGradient id="paint4_linear" x1="11.9941" y1="36.6445" x2="12.6772" y2="38.9777" gradientUnits="userSpaceOnUse">
<stop stop-color="#F46196"/>
<stop offset="1" stop-color="#DC1616"/>
</linearGradient>
<linearGradient id="paint5_linear" x1="16.3694" y1="39.0166" x2="17.0522" y2="41.3499" gradientUnits="userSpaceOnUse">
<stop stop-color="#F46196"/>
<stop offset="1" stop-color="#DC1616"/>
</linearGradient>
<linearGradient id="paint6_linear" x1="10.2857" y1="0.0683599" x2="26.5502" y2="43.7581" gradientUnits="userSpaceOnUse">
<stop stop-color="#F46196"/>
<stop offset="1" stop-color="#DC1616"/>
</linearGradient>
<linearGradient id="paint7_linear" x1="34.2489" y1="36.6504" x2="34.9324" y2="38.9858" gradientUnits="userSpaceOnUse">
<stop stop-color="#F46196"/>
<stop offset="1" stop-color="#DC1616"/>
</linearGradient>
<linearGradient id="paint8_linear" x1="29.886" y1="39.0166" x2="30.5688" y2="41.3498" gradientUnits="userSpaceOnUse">
<stop stop-color="#F46196"/>
<stop offset="1" stop-color="#DC1616"/>
</linearGradient>
<linearGradient id="paint9_linear" x1="43.3895" y1="23.2246" x2="45.0333" y2="25.4305" gradientUnits="userSpaceOnUse">
<stop stop-color="#F46196"/>
<stop offset="1" stop-color="#DC1616"/>
</linearGradient>
<linearGradient id="paint10_linear" x1="3.69814" y1="23.2246" x2="5.3419" y2="25.4305" gradientUnits="userSpaceOnUse">
<stop stop-color="#F46196"/>
<stop offset="1" stop-color="#DC1616"/>
</linearGradient>
<clipPath id="clip0">
<rect width="48" height="48" fill="white"/>
</clipPath>
</defs>
</svg>
