<svg width="48" height="48" viewBox="0 0 48 48" fill="none" xmlns="http://www.w3.org/2000/svg">
<path d="M47 46.0001H45.9999V17C45.9999 16.448 45.5519 16 44.9999 16H38.9999C38.4479 16 37.9999 16.448 37.9999 17V46H33.9998V29C33.9998 28.448 33.5518 28 32.9998 28H26.9998C26.4478 28 25.9998 28.448 25.9998 29V46H21.9998V25C21.9998 24.448 21.5517 24 20.9997 24H14.9997C14.4477 24 13.9997 24.448 13.9997 25V46H9.99966V35C9.99966 34.448 9.55163 34 8.99963 34H3C2.448 34 1.99997 34.448 1.99997 35V46H1.00003C0.448031 46.0001 0 46.448 0 47C0 47.552 0.448031 48.0001 1.00003 48.0001H3H9H15H21H27H33H39H45H47C47.552 48.0001 48 47.552 48 47C48 46.448 47.552 46.0001 47 46.0001Z" fill="url(#paint0_linear)"/>
<path d="M42 0C39.794 0 38 1.794 38 4.00003C38 4.74 38.216 5.424 38.566 6.02006L32.02 12.5661C31.424 12.216 30.74 12 30 12C28.746 12 27.638 12.592 26.904 13.498L21.99 12.096C21.99 12.064 22.0001 12.034 22.0001 12C22.0001 9.79397 20.2061 7.99997 18 7.99997C15.794 7.99997 14 9.79397 14 12C14 12.582 14.13 13.13 14.354 13.628L8.10397 18.614C7.49206 18.23 6.77403 18 6.00003 18C3.794 18 2 19.794 2 22C2 24.2061 3.794 26.0001 6.00003 26.0001C8.20606 26.0001 10.0001 24.2061 10.0001 22C10.0001 21.298 9.80206 20.646 9.48209 20.0721L15.6081 15.1861C16.2781 15.6901 17.1001 16.0001 18.0001 16.0001C19.4661 16.0001 20.7381 15.1981 21.4341 14.0182L26.0681 15.3401C26.0301 15.5561 26.0001 15.7741 26.0001 16.0001C26.0001 18.2062 27.7941 20.0002 30.0001 20.0002C32.2062 20.0002 34.0002 18.2062 34.0002 16.0001C34.0002 15.2602 33.7842 14.5762 33.4342 13.9801L39.9822 7.43213C40.5762 7.78416 41.2602 8.00016 42.0001 8.00016C44.2062 8.00016 46.0002 6.20616 46.0002 4.00012C46.0001 1.794 44.2061 0 42 0Z" fill="url(#paint1_linear)"/>
<defs>
<linearGradient id="paint0_linear" x1="24" y1="16" x2="24" y2="48.0001" gradientUnits="userSpaceOnUse">
<stop stop-color="#FF2829"/>
<stop offset="1" stop-color="#FF4A69"/>
</linearGradient>
<linearGradient id="paint1_linear" x1="24.0001" y1="0" x2="24.0001" y2="26.0001" gradientUnits="userSpaceOnUse">
<stop stop-color="#FF2829"/>
<stop offset="1" stop-color="#FF4A69"/>
</linearGradient>
</defs>
</svg>
