<svg width="56" height="56" viewBox="0 0 56 56" fill="none" xmlns="http://www.w3.org/2000/svg">
<path d="M27.9992 0C12.5358 0 0 12.5367 0 27.9995C0 43.4624 12.5358 56 27.9992 56C43.4629 56 55.9992 43.4627 55.9992 27.9995C55.9992 12.5363 43.4629 0 27.9992 0ZM20.3473 38.7691H37.7395C40.0003 38.7691 41.8395 40.6088 41.8395 42.8697C41.8395 45.1306 40.0003 46.9703 37.7395 46.9703C35.478 46.9703 33.6383 45.1306 33.6383 42.8697C33.6383 42.4538 33.7017 42.0525 33.8169 41.6739H22.034C22.1497 42.0525 22.2132 42.4534 22.2132 42.8697C22.2132 45.1306 20.374 46.9703 18.1125 46.9703C15.8511 46.9703 14.0119 45.1306 14.0119 42.8697C14.0119 40.8498 15.4813 39.1704 17.4067 38.8344L16.6859 34.8641L16.678 34.8264L12.8544 15.9043L9.34158 15.9274L9.32216 13.0226L15.2282 12.9834L16.6573 20.0548L43.1337 23.2292L39.7704 36.0453H19.8524L20.3473 38.7691Z" fill="url(#paint0_linear)"/>
<defs>
<linearGradient id="paint0_linear" x1="27.9996" y1="0" x2="27.9996" y2="56" gradientUnits="userSpaceOnUse">
<stop stop-color="#EF7606"/>
<stop offset="1" stop-color="#FCA85A"/>
</linearGradient>
</defs>
</svg>
