<svg width="56" height="56" viewBox="0 0 56 56" fill="none" xmlns="http://www.w3.org/2000/svg">
<path d="M44.625 14.875C45.5915 14.875 46.375 14.0915 46.375 13.125C46.375 12.1585 45.5915 11.375 44.625 11.375C43.6585 11.375 42.875 12.1585 42.875 13.125C42.875 14.0915 43.6585 14.875 44.625 14.875Z" fill="url(#paint0_linear)"/>
<path d="M19.25 8.75C19.7332 8.75 20.125 8.35825 20.125 7.875C20.125 7.39175 19.7332 7 19.25 7C18.7668 7 18.375 7.39175 18.375 7.875C18.375 8.35825 18.7668 8.75 19.25 8.75Z" fill="url(#paint1_linear)"/>
<path d="M7 8.75C7.48325 8.75 7.875 8.35825 7.875 7.875C7.875 7.39175 7.48325 7 7 7C6.51675 7 6.125 7.39175 6.125 7.875C6.125 8.35825 6.51675 8.75 7 8.75Z" fill="url(#paint2_linear)"/>
<path d="M13.125 8.75C13.6082 8.75 14 8.35825 14 7.875C14 7.39175 13.6082 7 13.125 7C12.6418 7 12.25 7.39175 12.25 7.875C12.25 8.35825 12.6418 8.75 13.125 8.75Z" fill="url(#paint3_linear)"/>
<path d="M11.375 29.75H37.625C38.3212 29.75 38.9889 29.4734 39.4812 28.9812C39.9734 28.4889 40.25 27.8212 40.25 27.125V21.875C40.25 21.1788 39.9734 20.5111 39.4812 20.0188C38.9889 19.5266 38.3212 19.25 37.625 19.25H11.375C10.6788 19.25 10.0111 19.5266 9.51884 20.0188C9.02656 20.5111 8.75 21.1788 8.75 21.875V27.125C8.75 27.8212 9.02656 28.4889 9.51884 28.9812C10.0111 29.4734 10.6788 29.75 11.375 29.75ZM32.2875 23.9452C32.0882 23.8284 31.9431 23.6374 31.8841 23.4141C31.825 23.1907 31.8567 22.953 31.9723 22.7529C32.0878 22.5528 32.2778 22.4065 32.5008 22.346C32.7238 22.2854 32.9616 22.3155 33.1625 22.4298L34.125 22.9845V21.875C34.125 21.6429 34.2172 21.4204 34.3813 21.2563C34.5454 21.0922 34.7679 21 35 21C35.2321 21 35.4546 21.0922 35.6187 21.2563C35.7828 21.4204 35.875 21.6429 35.875 21.875V22.9845L36.8375 22.4298C37.0384 22.3155 37.2762 22.2854 37.4992 22.346C37.7222 22.4065 37.9122 22.5528 38.0277 22.7529C38.1433 22.953 38.175 23.1907 38.1159 23.4141C38.0569 23.6374 37.9118 23.8284 37.7125 23.9452L36.75 24.5L37.7125 25.0548C37.8128 25.1118 37.9009 25.1881 37.9716 25.2793C38.0423 25.3705 38.0942 25.4748 38.1245 25.5861C38.1547 25.6975 38.1626 25.8138 38.1477 25.9282C38.1329 26.0426 38.0955 26.153 38.0378 26.2529C37.9801 26.3528 37.9032 26.4404 37.8115 26.5105C37.7199 26.5806 37.6152 26.6318 37.5037 26.6613C37.3921 26.6908 37.2758 26.698 37.1615 26.6823C37.0472 26.6667 36.937 26.6286 36.8375 26.5702L35.875 26.0155V27.125C35.875 27.3571 35.7828 27.5796 35.6187 27.7437C35.4546 27.9078 35.2321 28 35 28C34.7679 28 34.5454 27.9078 34.3813 27.7437C34.2172 27.5796 34.125 27.3571 34.125 27.125V26.0155L33.1625 26.5702C33.063 26.6286 32.9528 26.6667 32.8385 26.6823C32.7242 26.698 32.6079 26.6908 32.4963 26.6613C32.3848 26.6318 32.2801 26.5806 32.1885 26.5105C32.0968 26.4404 32.0199 26.3528 31.9622 26.2529C31.9045 26.153 31.8671 26.0426 31.8523 25.9282C31.8374 25.8138 31.8453 25.6975 31.8755 25.5861C31.9058 25.4748 31.9577 25.3705 32.0284 25.2793C32.0991 25.1881 32.1872 25.1118 32.2875 25.0548L33.25 24.5L32.2875 23.9452ZM25.2875 23.9452C25.0882 23.8284 24.9432 23.6374 24.8841 23.4141C24.825 23.1907 24.8567 22.953 24.9723 22.7529C25.0878 22.5528 25.2778 22.4065 25.5008 22.346C25.7238 22.2854 25.9616 22.3155 26.1625 22.4298L27.125 22.9845V21.875C27.125 21.6429 27.2172 21.4204 27.3813 21.2563C27.5454 21.0922 27.7679 21 28 21C28.2321 21 28.4546 21.0922 28.6187 21.2563C28.7828 21.4204 28.875 21.6429 28.875 21.875V22.9845L29.8375 22.4298C30.0384 22.3155 30.2762 22.2854 30.4992 22.346C30.7222 22.4065 30.9122 22.5528 31.0277 22.7529C31.1433 22.953 31.175 23.1907 31.1159 23.4141C31.0569 23.6374 30.9118 23.8284 30.7125 23.9452L29.75 24.5L30.7125 25.0548C30.8128 25.1118 30.9009 25.1881 30.9716 25.2793C31.0423 25.3705 31.0942 25.4748 31.1245 25.5861C31.1547 25.6975 31.1626 25.8138 31.1477 25.9282C31.1329 26.0426 31.0955 26.153 31.0378 26.2529C30.9801 26.3528 30.9032 26.4404 30.8115 26.5105C30.7199 26.5806 30.6152 26.6318 30.5037 26.6613C30.3921 26.6908 30.2758 26.698 30.1615 26.6823C30.0472 26.6667 29.937 26.6286 29.8375 26.5702L28.875 26.0155V27.125C28.875 27.3571 28.7828 27.5796 28.6187 27.7437C28.4546 27.9078 28.2321 28 28 28C27.7679 28 27.5454 27.9078 27.3813 27.7437C27.2172 27.5796 27.125 27.3571 27.125 27.125V26.0155L26.1625 26.5702C26.063 26.6286 25.9528 26.6667 25.8385 26.6823C25.7242 26.698 25.6079 26.6908 25.4963 26.6613C25.3848 26.6318 25.2801 26.5806 25.1885 26.5105C25.0968 26.4404 25.0199 26.3528 24.9622 26.2529C24.9045 26.153 24.8671 26.0426 24.8523 25.9282C24.8374 25.8138 24.8453 25.6975 24.8755 25.5861C24.9058 25.4748 24.9577 25.3705 25.0284 25.2793C25.0991 25.1881 25.1872 25.1118 25.2875 25.0548L26.25 24.5L25.2875 23.9452ZM18.2875 23.9452C18.0882 23.8284 17.9432 23.6374 17.8841 23.4141C17.825 23.1907 17.8567 22.953 17.9723 22.7529C18.0878 22.5528 18.2778 22.4065 18.5008 22.346C18.7238 22.2854 18.9616 22.3155 19.1625 22.4298L20.125 22.9845V21.875C20.125 21.6429 20.2172 21.4204 20.3813 21.2563C20.5454 21.0922 20.7679 21 21 21C21.2321 21 21.4546 21.0922 21.6187 21.2563C21.7828 21.4204 21.875 21.6429 21.875 21.875V22.9845L22.8375 22.4298C22.937 22.3714 23.0472 22.3333 23.1615 22.3177C23.2758 22.302 23.3921 22.3092 23.5037 22.3387C23.6152 22.3682 23.7199 22.4194 23.8115 22.4895C23.9032 22.5596 23.9801 22.6472 24.0378 22.7471C24.0955 22.847 24.1329 22.9574 24.1477 23.0718C24.1626 23.1862 24.1547 23.3025 24.1245 23.4139C24.0942 23.5252 24.0423 23.6295 23.9716 23.7207C23.9009 23.8119 23.8128 23.8882 23.7125 23.9452L22.75 24.5L23.7125 25.0548C23.8128 25.1118 23.9009 25.1881 23.9716 25.2793C24.0423 25.3705 24.0942 25.4748 24.1245 25.5861C24.1547 25.6975 24.1626 25.8138 24.1477 25.9282C24.1329 26.0426 24.0955 26.153 24.0378 26.2529C23.9801 26.3528 23.9032 26.4404 23.8115 26.5105C23.7199 26.5806 23.6152 26.6318 23.5037 26.6613C23.3921 26.6908 23.2758 26.698 23.1615 26.6823C23.0472 26.6667 22.937 26.6286 22.8375 26.5702L21.875 26.0155V27.125C21.875 27.3571 21.7828 27.5796 21.6187 27.7437C21.4546 27.9078 21.2321 28 21 28C20.7679 28 20.5454 27.9078 20.3813 27.7437C20.2172 27.5796 20.125 27.3571 20.125 27.125V26.0155L19.1625 26.5702C18.9616 26.6845 18.7238 26.7146 18.5008 26.654C18.2778 26.5935 18.0878 26.4472 17.9723 26.2471C17.8567 26.047 17.825 25.8093 17.8841 25.5859C17.9432 25.3626 18.0882 25.1716 18.2875 25.0548L19.25 24.5L18.2875 23.9452ZM11.2875 23.9452C11.0882 23.8284 10.9432 23.6374 10.8841 23.4141C10.825 23.1907 10.8567 22.953 10.9723 22.7529C11.0878 22.5528 11.2778 22.4065 11.5008 22.346C11.7238 22.2854 11.9616 22.3155 12.1625 22.4298L13.125 22.9845V21.875C13.125 21.6429 13.2172 21.4204 13.3813 21.2563C13.5454 21.0922 13.7679 21 14 21C14.2321 21 14.4546 21.0922 14.6187 21.2563C14.7828 21.4204 14.875 21.6429 14.875 21.875V22.9845L15.8375 22.4298C15.937 22.3714 16.0472 22.3333 16.1615 22.3177C16.2758 22.302 16.3921 22.3092 16.5037 22.3387C16.6152 22.3682 16.7199 22.4194 16.8115 22.4895C16.9032 22.5596 16.9801 22.6472 17.0378 22.7471C17.0955 22.847 17.1329 22.9574 17.1477 23.0718C17.1626 23.1862 17.1547 23.3025 17.1245 23.4139C17.0942 23.5252 17.0423 23.6295 16.9716 23.7207C16.9009 23.8119 16.8128 23.8882 16.7125 23.9452L15.75 24.5L16.7125 25.0548C16.8128 25.1118 16.9009 25.1881 16.9716 25.2793C17.0423 25.3705 17.0942 25.4748 17.1245 25.5861C17.1547 25.6975 17.1626 25.8138 17.1477 25.9282C17.1329 26.0426 17.0955 26.153 17.0378 26.2529C16.9801 26.3528 16.9032 26.4404 16.8115 26.5105C16.7199 26.5806 16.6152 26.6318 16.5037 26.6613C16.3921 26.6908 16.2758 26.698 16.1615 26.6823C16.0472 26.6667 15.937 26.6286 15.8375 26.5702L14.875 26.0155V27.125C14.875 27.3571 14.7828 27.5796 14.6187 27.7437C14.4546 27.9078 14.2321 28 14 28C13.7679 28 13.5454 27.9078 13.3813 27.7437C13.2172 27.5796 13.125 27.3571 13.125 27.125V26.0155L12.1625 26.5702C11.9616 26.6845 11.7238 26.7146 11.5008 26.654C11.2778 26.5935 11.0878 26.4472 10.9723 26.2471C10.8567 26.047 10.825 25.8093 10.8841 25.5859C10.9432 25.3626 11.0882 25.1716 11.2875 25.0548L12.25 24.5L11.2875 23.9452Z" fill="url(#paint4_linear)"/>
<path d="M4.375 52.5H51.625C51.8571 52.5 52.0796 52.4078 52.2437 52.2437C52.4078 52.0796 52.5 51.8571 52.5 51.625V14H49.875V12.25H52.5V4.375C52.5 4.14294 52.4078 3.92038 52.2437 3.75628C52.0796 3.59219 51.8571 3.5 51.625 3.5H4.375C4.14294 3.5 3.92038 3.59219 3.75628 3.75628C3.59219 3.92038 3.5 4.14294 3.5 4.375V12.25H39.375V14H3.5V51.625C3.5 51.8571 3.59219 52.0796 3.75628 52.2437C3.92038 52.4078 4.14294 52.5 4.375 52.5ZM7 10.5C6.48082 10.5 5.97331 10.346 5.54163 10.0576C5.10995 9.76917 4.7735 9.3592 4.57482 8.87954C4.37614 8.39989 4.32415 7.87209 4.42544 7.36289C4.52673 6.85369 4.77673 6.38596 5.14384 6.01884C5.51096 5.65173 5.97869 5.40173 6.48789 5.30044C6.99709 5.19915 7.52489 5.25114 8.00454 5.44982C8.4842 5.6485 8.89417 5.98495 9.18261 6.41663C9.47105 6.84831 9.625 7.35582 9.625 7.875C9.625 8.57119 9.34844 9.23887 8.85616 9.73116C8.36387 10.2234 7.69619 10.5 7 10.5ZM13.125 10.5C12.6058 10.5 12.0983 10.346 11.6666 10.0576C11.2349 9.76917 10.8985 9.3592 10.6998 8.87954C10.5011 8.39989 10.4492 7.87209 10.5504 7.36289C10.6517 6.85369 10.9017 6.38596 11.2688 6.01884C11.636 5.65173 12.1037 5.40173 12.6129 5.30044C13.1221 5.19915 13.6499 5.25114 14.1295 5.44982C14.6092 5.6485 15.0192 5.98495 15.3076 6.41663C15.596 6.84831 15.75 7.35582 15.75 7.875C15.75 8.57119 15.4734 9.23887 14.9812 9.73116C14.4889 10.2234 13.8212 10.5 13.125 10.5ZM19.25 10.5C18.7308 10.5 18.2233 10.346 17.7916 10.0576C17.36 9.76917 17.0235 9.3592 16.8248 8.87954C16.6261 8.39989 16.5742 7.87209 16.6754 7.36289C16.7767 6.85369 17.0267 6.38596 17.3938 6.01884C17.761 5.65173 18.2287 5.40173 18.7379 5.30044C19.2471 5.19915 19.7749 5.25114 20.2545 5.44982C20.7342 5.6485 21.1442 5.98495 21.4326 6.41663C21.721 6.84831 21.875 7.35582 21.875 7.875C21.875 8.57119 21.5984 9.23887 21.1062 9.73116C20.6139 10.2234 19.9462 10.5 19.25 10.5ZM12.25 47.25H10.5V45.5H12.25V47.25ZM12.25 42H10.5V40.25H12.25V42ZM12.25 36.75H10.5V35H12.25V36.75ZM32.375 47.25H14V45.5H32.375V47.25ZM32.375 42H14V40.25H32.375V42ZM32.375 36.75H14V35H32.375V36.75ZM44.625 9.625C45.4758 9.62394 46.2977 9.93343 46.9365 10.4954C47.5753 11.0573 47.987 11.8331 48.0944 12.677C48.2018 13.521 47.9975 14.3752 47.5198 15.0792C47.0421 15.7832 46.3239 16.2887 45.5 16.5007V40.25C45.5 41.4103 45.0391 42.5231 44.2186 43.3436C43.3981 44.1641 42.2853 44.625 41.125 44.625C39.9647 44.625 38.8519 44.1641 38.0314 43.3436C37.2109 42.5231 36.75 41.4103 36.75 40.25V34.6377L40.8686 38.7564L39.6314 39.9936L38.5 38.8623V40.25C38.5 40.9462 38.7766 41.6139 39.2688 42.1062C39.7611 42.5984 40.4288 42.875 41.125 42.875C41.8212 42.875 42.4889 42.5984 42.9812 42.1062C43.4734 41.6139 43.75 40.9462 43.75 40.25V16.5007C42.9261 16.2887 42.2079 15.7832 41.7302 15.0792C41.2525 14.3752 41.0482 13.521 41.1556 12.677C41.263 11.8331 41.6747 11.0573 42.3135 10.4954C42.9523 9.93343 43.7742 9.62394 44.625 9.625ZM7 21.875C7.00139 20.7151 7.46277 19.6031 8.28294 18.7829C9.10311 17.9628 10.2151 17.5014 11.375 17.5H37.625C38.7849 17.5014 39.8969 17.9628 40.7171 18.7829C41.5372 19.6031 41.9986 20.7151 42 21.875V27.125C41.9986 28.2849 41.5372 29.3969 40.7171 30.2171C39.8969 31.0372 38.7849 31.4986 37.625 31.5H11.375C10.2151 31.4986 9.10311 31.0372 8.28294 30.2171C7.46277 29.3969 7.00139 28.2849 7 27.125V21.875Z" fill="url(#paint5_linear)"/>
<defs>
<linearGradient id="paint0_linear" x1="44.625" y1="11.375" x2="44.625" y2="14.875" gradientUnits="userSpaceOnUse">
<stop stop-color="#E49A9A"/>
<stop offset="1" stop-color="#FF0000"/>
</linearGradient>
<linearGradient id="paint1_linear" x1="19.25" y1="7" x2="19.25" y2="8.75" gradientUnits="userSpaceOnUse">
<stop stop-color="#E49A9A"/>
<stop offset="1" stop-color="#FF0000"/>
</linearGradient>
<linearGradient id="paint2_linear" x1="7" y1="7" x2="7" y2="8.75" gradientUnits="userSpaceOnUse">
<stop stop-color="#E49A9A"/>
<stop offset="1" stop-color="#FF0000"/>
</linearGradient>
<linearGradient id="paint3_linear" x1="13.125" y1="7" x2="13.125" y2="8.75" gradientUnits="userSpaceOnUse">
<stop stop-color="#E49A9A"/>
<stop offset="1" stop-color="#FF0000"/>
</linearGradient>
<linearGradient id="paint4_linear" x1="24.5" y1="19.25" x2="24.5" y2="29.75" gradientUnits="userSpaceOnUse">
<stop stop-color="#E49A9A"/>
<stop offset="1" stop-color="#FF0000"/>
</linearGradient>
<linearGradient id="paint5_linear" x1="28" y1="3.5" x2="28" y2="52.5" gradientUnits="userSpaceOnUse">
<stop stop-color="#E49A9A"/>
<stop offset="1" stop-color="#FF0000"/>
</linearGradient>
</defs>
</svg>
