<svg width="56" height="56" viewBox="0 0 56 56" fill="none" xmlns="http://www.w3.org/2000/svg">
<path d="M18.8436 53.745L18.4124 46.8457H0.973362L0.542206 53.7449C0.514425 54.1898 0.671706 54.6266 0.977081 54.9517C1.28246 55.2768 1.70858 55.4611 2.1545 55.4611H17.2314C17.6773 55.4611 18.1033 55.2767 18.4088 54.9518C18.7141 54.6268 18.8714 54.19 18.8436 53.745Z" fill="url(#paint0_linear)"/>
<path d="M42.5385 39.3076H35V42.5383H42.5385V39.3076Z" fill="url(#paint1_linear)"/>
<path d="M31.7689 39.3076H24.2305V42.5383H31.7689V39.3076Z" fill="url(#paint2_linear)"/>
<path d="M10.7668 0.539062C9.87467 0.539062 9.15148 1.26236 9.15148 2.15442C9.15148 2.45138 8.90998 2.69288 8.61303 2.69288C6.53469 2.69288 4.84375 4.3837 4.84375 6.46216V8.61597C4.84375 9.50814 5.56705 10.2313 6.45911 10.2313C7.35117 10.2313 8.07447 9.50803 8.07447 8.61597V6.46216C8.07447 6.1652 8.31597 5.9237 8.61292 5.9237C10.6913 5.9237 12.3822 4.23288 12.3822 2.15442C12.3822 1.26236 11.6589 0.539062 10.7668 0.539062Z" fill="url(#paint3_linear)"/>
<path d="M28.0009 0.539062H21.5393C19.461 0.539062 17.77 2.22989 17.77 4.30834C17.77 4.6053 17.5285 4.8468 17.2316 4.8468H15.0778C12.9994 4.8468 11.3086 6.53762 11.3086 8.61608C11.3086 9.50825 12.0319 10.2314 12.924 10.2314C13.816 10.2314 14.5393 9.50814 14.5393 8.61608C14.5393 8.31912 14.7808 8.07762 15.0778 8.07762H17.2316C19.3099 8.07762 21.0009 6.3868 21.0009 4.30845C21.0009 4.0115 21.2424 3.77 21.5393 3.77H28.0009C28.893 3.77 29.6162 3.0467 29.6162 2.15464C29.6162 1.26258 28.893 0.539062 28.0009 0.539062Z" fill="url(#paint4_linear)"/>
<path d="M45.6733 37.1543C45.733 37.323 45.7673 37.5036 45.7673 37.6928V44.1543C45.7673 45.0465 45.044 45.7697 44.1519 45.7697H22.6133C22.2079 45.7697 21.8384 45.6192 21.5547 45.3725L22.0655 53.5444C22.1064 54.1995 22.0112 54.8522 21.7954 55.462H49.5364C50.4286 55.462 51.1518 54.7387 51.1518 53.8467V37.1543H45.6733Z" fill="url(#paint5_linear)"/>
<path d="M21.043 37.1543L21.0517 37.2931C21.0639 37.2461 21.0777 37.1996 21.0938 37.1543H21.043Z" fill="url(#paint6_linear)"/>
<path d="M18.2111 43.6158L16.9995 24.2311L16.991 24.0947C16.5464 24.1836 16.0869 24.2311 15.6165 24.2311H15.4818H3.77038C3.29995 24.2311 2.84058 24.1838 2.39586 24.0947L1.17578 43.6158H8.078V32.3081C8.078 31.416 8.8013 30.6928 9.69336 30.6928C10.5855 30.6928 11.3087 31.4161 11.3087 32.3081V43.6159H18.2111V43.6158Z" fill="url(#paint7_linear)"/>
<path d="M52.2297 24.2305H20.2344L20.8401 33.9227H52.2297C54.3081 33.9227 55.999 32.2319 55.999 30.1535V27.9997C55.999 25.9214 54.3082 24.2305 52.2297 24.2305Z" fill="url(#paint8_linear)"/>
<path d="M15.6154 11.3076H3.76928C1.69083 11.3076 0 12.9984 0 15.0768V17.2306C0 18.9008 1.09233 20.3199 2.59995 20.8132H2.60006C2.64173 20.8267 2.68373 20.8395 2.72606 20.8518C2.73514 20.8544 2.74411 20.8569 2.75319 20.8596C2.79355 20.8708 2.83402 20.8818 2.87492 20.8917C2.88444 20.8941 2.89395 20.8961 2.90347 20.8983C2.97697 20.9157 3.05134 20.9308 3.12648 20.9439C3.14212 20.9466 3.15755 20.9497 3.17319 20.9523C3.20119 20.9568 3.22952 20.9604 3.25773 20.9642C3.28781 20.9683 3.31789 20.9723 3.3483 20.9757C3.37323 20.9786 3.39828 20.981 3.42344 20.9833C3.45997 20.9867 3.49672 20.9894 3.53347 20.9917C3.55381 20.993 3.57405 20.9945 3.5945 20.9954C3.65236 20.9982 3.71055 20.9999 3.76917 20.9999H15.6154C15.674 20.9999 15.7322 20.9981 15.7901 20.9955C15.8106 20.9945 15.8308 20.993 15.8512 20.9918C15.888 20.9895 15.9247 20.9868 15.9612 20.9834C15.9862 20.9811 16.0114 20.9786 16.0363 20.9758C16.0666 20.9724 16.0967 20.9684 16.1269 20.9643C16.1551 20.9605 16.1835 20.9568 16.2115 20.9524C16.2272 20.9499 16.2426 20.9468 16.2582 20.944C16.3333 20.931 16.4077 20.9158 16.4812 20.8984C16.4907 20.8961 16.5002 20.8941 16.5097 20.8918C16.5505 20.8818 16.591 20.8709 16.6315 20.8597C16.6405 20.857 16.6495 20.8546 16.6586 20.8519C16.7009 20.8398 16.7429 20.8271 16.7846 20.8133H16.7847C18.2922 20.3199 19.3845 18.9008 19.3845 17.2306V15.0768C19.3846 12.9984 17.6937 11.3076 15.6154 11.3076Z" fill="url(#paint9_linear)"/>
<defs>
<linearGradient id="paint0_linear" x1="9.6929" y1="46.8457" x2="9.6929" y2="55.4611" gradientUnits="userSpaceOnUse">
<stop stop-color="#5F5F5F"/>
<stop offset="1" stop-color="#181D22"/>
</linearGradient>
<linearGradient id="paint1_linear" x1="38.7692" y1="39.3076" x2="38.7692" y2="42.5383" gradientUnits="userSpaceOnUse">
<stop stop-color="#5F5F5F"/>
<stop offset="1" stop-color="#181D22"/>
</linearGradient>
<linearGradient id="paint2_linear" x1="27.9997" y1="39.3076" x2="27.9997" y2="42.5383" gradientUnits="userSpaceOnUse">
<stop stop-color="#5F5F5F"/>
<stop offset="1" stop-color="#181D22"/>
</linearGradient>
<linearGradient id="paint3_linear" x1="8.61298" y1="0.539062" x2="8.61298" y2="10.2313" gradientUnits="userSpaceOnUse">
<stop stop-color="#5F5F5F"/>
<stop offset="1" stop-color="#181D22"/>
</linearGradient>
<linearGradient id="paint4_linear" x1="20.4624" y1="0.539062" x2="20.4624" y2="10.2314" gradientUnits="userSpaceOnUse">
<stop stop-color="#5F5F5F"/>
<stop offset="1" stop-color="#181D22"/>
</linearGradient>
<linearGradient id="paint5_linear" x1="36.3532" y1="37.1543" x2="36.3532" y2="55.462" gradientUnits="userSpaceOnUse">
<stop stop-color="#5F5F5F"/>
<stop offset="1" stop-color="#181D22"/>
</linearGradient>
<linearGradient id="paint6_linear" x1="21.0684" y1="37.1543" x2="21.0684" y2="37.2931" gradientUnits="userSpaceOnUse">
<stop stop-color="#5F5F5F"/>
<stop offset="1" stop-color="#181D22"/>
</linearGradient>
<linearGradient id="paint7_linear" x1="9.69342" y1="24.0947" x2="9.69342" y2="43.6159" gradientUnits="userSpaceOnUse">
<stop stop-color="#5F5F5F"/>
<stop offset="1" stop-color="#181D22"/>
</linearGradient>
<linearGradient id="paint8_linear" x1="38.1167" y1="24.2305" x2="38.1167" y2="33.9227" gradientUnits="userSpaceOnUse">
<stop stop-color="#5F5F5F"/>
<stop offset="1" stop-color="#181D22"/>
</linearGradient>
<linearGradient id="paint9_linear" x1="9.69227" y1="11.3076" x2="9.69227" y2="20.9999" gradientUnits="userSpaceOnUse">
<stop stop-color="#5F5F5F"/>
<stop offset="1" stop-color="#181D22"/>
</linearGradient>
</defs>
</svg>
