<svg width="56" height="56" viewBox="0 0 56 56" fill="none" xmlns="http://www.w3.org/2000/svg">
<g clip-path="url(#clip0)">
<path d="M26.3583 6.5625C20.0406 6.92523 14.1186 9.37805 9.39453 13.589L16.4001 20.5941C17.9416 20.0468 19.6002 19.7477 21.3271 19.7477C23.0929 19.7477 24.7874 20.0601 26.3583 20.6313V6.5625Z" fill="url(#paint0_linear)"/>
<path d="M32.7283 25.1396L45.9802 13.049C41.3634 9.16827 35.6832 6.90942 29.6406 6.5625V22.3168C30.7985 23.108 31.8384 24.0595 32.7283 25.1396Z" fill="url(#paint1_linear)"/>
<path d="M0 34.5136V36.1542H6.5625V34.5136C6.5625 29.3315 9.24603 24.7651 13.2959 22.1295L7.07562 15.9092C2.50195 21.04 0 27.5841 0 34.5136Z" fill="url(#paint2_linear)"/>
<path d="M47.3008 36.1545H56.0012V34.5139C56.0012 32.1282 55.7034 29.7886 55.1284 27.5361L47.3008 36.1545Z" fill="url(#paint3_linear)"/>
<path d="M28.0009 36.21C26.2479 36.21 24.5996 36.8927 23.3602 38.1321C20.8018 40.6909 20.8018 44.854 23.3602 47.4128C24.5996 48.6522 26.2479 49.335 28.0009 49.335C29.7535 49.335 31.4018 48.6522 32.6412 47.4128C35.2 44.854 35.2 40.6909 32.6412 38.1321C31.4018 36.8927 29.7535 36.21 28.0009 36.21Z" fill="url(#paint4_linear)"/>
<path d="M49.0204 14.7168L29.0039 32.979C31.2534 33.2054 33.3396 34.1911 34.9597 35.8112C36.6191 37.4706 37.5595 39.5804 37.7842 41.7508L55.9999 21.6942V14.7168H49.0204Z" fill="url(#paint5_linear)"/>
</g>
<defs>
<linearGradient id="paint0_linear" x1="17.8764" y1="6.5625" x2="17.8764" y2="20.6313" gradientUnits="userSpaceOnUse">
<stop stop-color="#F10D0D"/>
<stop offset="1" stop-color="#FDA463"/>
</linearGradient>
<linearGradient id="paint1_linear" x1="37.8104" y1="6.5625" x2="37.8104" y2="25.1396" gradientUnits="userSpaceOnUse">
<stop stop-color="#F10D0D"/>
<stop offset="1" stop-color="#FDA463"/>
</linearGradient>
<linearGradient id="paint2_linear" x1="6.64795" y1="15.9092" x2="6.64795" y2="36.1542" gradientUnits="userSpaceOnUse">
<stop stop-color="#F10D0D"/>
<stop offset="1" stop-color="#FDA463"/>
</linearGradient>
<linearGradient id="paint3_linear" x1="51.651" y1="27.5361" x2="51.651" y2="36.1545" gradientUnits="userSpaceOnUse">
<stop stop-color="#F10D0D"/>
<stop offset="1" stop-color="#FDA463"/>
</linearGradient>
<linearGradient id="paint4_linear" x1="28.0009" y1="36.21" x2="28.0009" y2="49.335" gradientUnits="userSpaceOnUse">
<stop stop-color="#F10D0D"/>
<stop offset="1" stop-color="#FDA463"/>
</linearGradient>
<linearGradient id="paint5_linear" x1="42.5019" y1="14.7168" x2="42.5019" y2="41.7508" gradientUnits="userSpaceOnUse">
<stop stop-color="#F10D0D"/>
<stop offset="1" stop-color="#FDA463"/>
</linearGradient>
<clipPath id="clip0">
<rect width="56" height="56" fill="white"/>
</clipPath>
</defs>
</svg>
