<svg width="56" height="56" viewBox="0 0 56 56" fill="none" xmlns="http://www.w3.org/2000/svg">
<path d="M55.7641 29.0606C55.7641 35.3249 50.6659 40.4242 44.4004 40.4242C41.3883 40.4242 38.9459 37.9806 38.9459 34.9697V23.1515C38.9459 20.9309 40.278 19.0291 42.1835 18.177C40.501 11.9091 34.7883 7.27273 27.9992 7.27273C21.2101 7.27273 15.4974 11.9091 13.8162 18.177C15.7204 19.0279 17.0526 20.9297 17.0526 23.1515V34.9697C17.0526 37.52 15.2938 39.6461 12.9265 40.2436C15.0235 44.1309 18.5823 47.1164 22.8586 48.4642C23.6647 46.4073 25.6586 44.9394 27.9992 44.9394C31.0489 44.9394 33.5301 47.4206 33.5301 50.4691C33.5301 53.5176 31.0489 56 27.9992 56C25.0926 56 22.7265 53.737 22.512 50.8824C17.0829 49.2909 12.638 45.4024 10.2841 40.343C4.63801 39.6885 0.234375 34.8812 0.234375 29.0594C0.234375 24.7273 2.67316 20.9552 6.25013 19.0388C7.68892 8.30909 16.8804 0 27.9992 0C39.1168 0 48.3095 8.30909 49.7483 19.04C53.3265 20.9552 55.7641 24.7273 55.7641 29.0606Z" fill="url(#paint0_linear)"/>
<defs>
<linearGradient id="paint0_linear" x1="27.9992" y1="0" x2="27.9992" y2="56" gradientUnits="userSpaceOnUse">
<stop stop-color="#162ADC"/>
<stop offset="1" stop-color="#6456FF"/>
</linearGradient>
</defs>
</svg>
