<svg width="56" height="56" viewBox="0 0 56 56" fill="none" xmlns="http://www.w3.org/2000/svg">
<path d="M29.6445 0C26.0252 0 22.9727 3.05254 22.9727 6.67186C22.9727 10.2912 26.0252 13.3437 29.6445 13.3437C33.2638 13.3437 36.207 10.2912 36.207 6.67186C36.207 3.05254 33.2638 0 29.6445 0Z" fill="url(#paint0_linear)"/>
<path d="M36.928 13.3438C35.1249 15.343 32.5425 16.625 29.6445 16.625C26.7465 16.625 24.0547 15.343 22.2516 13.3438C20.6775 15.0893 19.6914 17.376 19.6914 19.9062V21.5469C19.6914 22.4537 20.4252 23.1875 21.332 23.1875H37.8476C38.7544 23.1875 39.4882 22.4537 39.4882 21.5469V19.9062C39.4882 17.376 38.5021 15.0893 36.928 13.3438Z" fill="url(#paint1_linear)"/>
<path d="M15.8547 50.3566L7.49396 33.5944C6.68666 31.9757 4.72185 31.3157 3.10125 32.1186L0.916047 33.2011C0.102408 33.6046 -0.22867 34.5934 0.177439 35.4056L10.0212 55.0931C10.426 55.905 11.4107 56.2281 12.2177 55.8301L14.3748 54.7614C16.0018 53.9555 16.6649 51.9814 15.8547 50.3566Z" fill="url(#paint2_linear)"/>
<path d="M54.66 27.0921C53.3146 26.1077 51.4443 26.3046 50.3288 27.5187L41.3601 38.5436C40.7366 39.1999 39.5554 39.5936 38.9319 39.5936H31.2865C30.3677 39.5936 29.6459 38.8719 29.6459 37.953C29.6459 37.0342 30.3677 36.3124 31.2865 36.3124C33.4839 36.3124 35.9166 36.3124 37.849 36.3124C39.6537 36.3124 41.1303 34.8358 41.1303 33.0311C41.1303 31.2265 39.6537 29.7499 37.849 29.7499C30.144 29.7499 37.4936 29.7499 29.2522 29.7499C28.4345 29.7499 28.0267 29.2314 27.3819 28.667C24.8434 26.3827 21.0437 25.2822 17.197 26.1738C15.0611 26.6688 13.6208 27.5317 12.1599 28.6886L12.1113 28.6492L9.73828 30.7376L19.064 49.4374H21.8255H37.849C40.9334 49.4374 43.8866 47.9608 45.7241 45.4999L55.349 31.7186C56.4318 30.2748 56.1365 28.175 54.66 27.0921Z" fill="url(#paint3_linear)"/>
<defs>
<linearGradient id="paint0_linear" x1="29.5898" y1="0" x2="29.5898" y2="13.3437" gradientUnits="userSpaceOnUse">
<stop stop-color="#18FFAC"/>
<stop offset="1" stop-color="#17E7CE"/>
</linearGradient>
<linearGradient id="paint1_linear" x1="29.5898" y1="13.3438" x2="29.5898" y2="23.1875" gradientUnits="userSpaceOnUse">
<stop stop-color="#18FFAC"/>
<stop offset="1" stop-color="#17E7CE"/>
</linearGradient>
<linearGradient id="paint2_linear" x1="8.10209" y1="31.7769" x2="8.10209" y2="56.0001" gradientUnits="userSpaceOnUse">
<stop stop-color="#18FFAC"/>
<stop offset="1" stop-color="#17E7CE"/>
</linearGradient>
<linearGradient id="paint3_linear" x1="32.8689" y1="25.8647" x2="32.8689" y2="49.4374" gradientUnits="userSpaceOnUse">
<stop stop-color="#18FFAC"/>
<stop offset="1" stop-color="#17E7CE"/>
</linearGradient>
</defs>
</svg>
