<svg width="48" height="48" viewBox="0 0 48 48" fill="none" xmlns="http://www.w3.org/2000/svg">
<g clip-path="url(#clip0)">
<path d="M5.14453 42.8574V43.7146C5.14453 46.0815 7.06331 48.0003 9.43025 48.0003H38.5731C40.94 48.0003 42.8588 46.0815 42.8588 43.7146V42.8574H5.14453ZM13.716 44.5717H14.5731C15.0465 44.5717 15.4302 44.9555 15.4302 45.4288C15.4302 45.9022 15.0465 46.286 14.5731 46.286H13.716C13.2426 46.286 12.8588 45.9022 12.8588 45.4288C12.8588 44.9555 13.2426 44.5717 13.716 44.5717ZM11.1445 44.5717C11.6179 44.5717 12.0017 44.9555 12.0017 45.4288C12.0017 45.9022 11.6179 46.286 11.1445 46.286C10.6711 46.286 10.2874 45.9022 10.2874 45.4288C10.2874 44.9555 10.6711 44.5717 11.1445 44.5717ZM8.5731 44.5717C9.04649 44.5717 9.43025 44.9555 9.43025 45.4288C9.43025 45.9022 9.04649 46.286 8.5731 46.286C8.09972 46.286 7.71596 45.9022 7.71596 45.4288C7.71596 44.9555 8.09972 44.5717 8.5731 44.5717Z" fill="url(#paint0_linear)"/>
<path d="M36.0006 18.8574H12.0006C9.63362 18.8574 7.71484 20.7762 7.71484 23.1431V41.1431H40.2863V23.1431C40.2863 20.7762 38.3675 18.8574 36.0006 18.8574ZM22.0377 33.1803L18.6091 36.6088C18.4482 36.7711 18.2291 36.8624 18.0006 36.8624C17.772 36.8624 17.5529 36.7711 17.392 36.6088L13.9634 33.1803C13.6273 32.8442 13.6273 32.2992 13.9634 31.9631C14.2995 31.627 14.8445 31.627 15.1806 31.9631L17.1434 33.9346V24.0003C17.1434 23.5269 17.5272 23.1431 18.0006 23.1431C18.4739 23.1431 18.8577 23.5269 18.8577 24.0003V33.9346L20.8206 31.9631C21.1567 31.627 21.7016 31.627 22.0377 31.9631C22.3738 32.2992 22.3738 32.8442 22.0377 33.1803ZM34.0377 28.0374C33.8768 28.1997 33.6577 28.291 33.4291 28.291C33.2006 28.291 32.9815 28.1997 32.8206 28.0374L30.8577 26.066V36.0003C30.8577 36.4737 30.4739 36.8574 30.0006 36.8574C29.5272 36.8574 29.1434 36.4737 29.1434 36.0003V26.066L27.1806 28.0374C26.8444 28.3735 26.2995 28.3735 25.9634 28.0374C25.6273 27.7013 25.6273 27.1564 25.9634 26.8203L29.392 23.3917C29.5529 23.2294 29.772 23.1382 30.0006 23.1382C30.2291 23.1382 30.4482 23.2294 30.6091 23.3917L34.0377 26.8203C34.2 26.9812 34.2912 27.2003 34.2912 27.4288C34.2912 27.6574 34.2 27.8765 34.0377 28.0374Z" fill="url(#paint1_linear)"/>
<path d="M39.431 11.9994C37.7398 11.994 36.0857 12.4956 34.6824 13.4394C34.2848 13.7045 33.7475 13.597 33.4824 13.1994C33.2173 12.8018 33.3248 12.2645 33.7224 11.9994C34.9264 11.1971 36.2885 10.6622 37.7167 10.4308C37.7167 10.388 37.7167 10.3365 37.7167 10.2851C37.7113 5.44353 34.3302 1.26115 29.5972 0.241483C24.8642 -0.778185 20.0609 1.64095 18.0624 6.05083C19.5958 6.21135 21.0566 6.78618 22.2881 7.71369C22.6668 7.99772 22.7436 8.53498 22.4596 8.91369C22.1755 9.2924 21.6383 9.36915 21.2596 9.08512C20.0756 8.18929 18.63 7.70742 17.1453 7.71369H16.8967C14.7227 7.79376 12.7158 8.90062 11.4881 10.6965C12.4805 10.986 13.4228 11.4253 14.2824 11.9994C14.5366 12.1709 14.68 12.4649 14.6585 12.7708C14.6371 13.0767 14.4541 13.3479 14.1785 13.4822C13.9029 13.6166 13.5766 13.5937 13.3224 13.4223C11.9171 12.4845 10.2633 11.9889 8.57384 11.9994C4.3416 11.9986 0.742275 15.0869 0.10002 19.2701C-0.542235 23.4533 1.96485 27.4791 6.00241 28.748V23.1423C6.00241 19.8286 8.6887 17.1423 12.0024 17.1423H36.0024C39.3161 17.1423 42.0024 19.8286 42.0024 23.1423V28.748C46.04 27.4791 48.5471 23.4533 47.9048 19.2701C47.2625 15.0869 43.6632 11.9986 39.431 11.9994ZM32.6338 5.82798C31.3329 4.30702 29.4324 3.43035 27.431 3.42798C26.9576 3.42798 26.5738 3.04422 26.5738 2.57083C26.5738 2.09745 26.9576 1.71369 27.431 1.71369C29.9321 1.71389 32.3084 2.80655 33.9367 4.70512C34.0845 4.87788 34.1576 5.10228 34.1399 5.32893C34.1222 5.55559 34.0152 5.76593 33.8424 5.91369C33.6884 6.04957 33.4907 6.12561 33.2853 6.12798C33.0347 6.12799 32.7967 6.01838 32.6338 5.82798Z" fill="url(#paint2_linear)"/>
</g>
<defs>
<linearGradient id="paint0_linear" x1="13.2262" y1="42.8574" x2="13.4964" y2="48.1774" gradientUnits="userSpaceOnUse">
<stop stop-color="#1A4CFB"/>
<stop offset="1" stop-color="#38CAF9"/>
</linearGradient>
<linearGradient id="paint1_linear" x1="14.6944" y1="18.8574" x2="20.2265" y2="40.5601" gradientUnits="userSpaceOnUse">
<stop stop-color="#1A4CFB"/>
<stop offset="1" stop-color="#38CAF9"/>
</linearGradient>
<linearGradient id="paint2_linear" x1="10.2867" y1="0.00976596" x2="16.6191" y2="28.4023" gradientUnits="userSpaceOnUse">
<stop stop-color="#1A4CFB"/>
<stop offset="1" stop-color="#38CAF9"/>
</linearGradient>
<clipPath id="clip0">
<rect width="48" height="48" fill="white"/>
</clipPath>
</defs>
</svg>
