<svg width="48" height="48" viewBox="0 0 48 48" fill="none" xmlns="http://www.w3.org/2000/svg">
<path d="M13.6875 37.6875C16.5352 37.6875 18.8438 35.379 18.8438 32.5312C18.8438 29.6835 16.5352 27.375 13.6875 27.375C10.8398 27.375 8.53125 29.6835 8.53125 32.5312C8.53125 35.379 10.8398 37.6875 13.6875 37.6875Z" fill="url(#paint0_linear)"/>
<path d="M4.66406 46.7109C4.66406 47.4234 5.24062 48 5.95312 48H21.4219C22.1344 48 22.7109 47.4234 22.7109 46.7109C22.7109 41.7359 18.6625 37.6875 13.6875 37.6875C8.71249 37.6875 4.66406 41.7359 4.66406 46.7109Z" fill="url(#paint1_linear)"/>
<path d="M34.3125 37.6875C37.1602 37.6875 39.4688 35.379 39.4688 32.5312C39.4688 29.6835 37.1602 27.375 34.3125 27.375C31.4648 27.375 29.1562 29.6835 29.1562 32.5312C29.1562 35.379 31.4648 37.6875 34.3125 37.6875Z" fill="url(#paint2_linear)"/>
<path d="M25.2891 46.7109C25.2891 47.4234 25.8656 48 26.5781 48H42.0469C42.7594 48 43.3359 47.4234 43.3359 46.7109C43.3359 41.7359 39.2875 37.6875 34.3125 37.6875C29.3375 37.6875 25.2891 41.7359 25.2891 46.7109Z" fill="url(#paint3_linear)"/>
<path d="M42.1328 4H5.86719C3.73473 4 2 5.73473 2 7.86719V18.1797C2 20.3121 3.73473 22.0469 5.86719 22.0469H10.4897L12.6901 24.2473C13.1936 24.7508 14.0094 24.7508 14.5129 24.2473L16.7134 22.0469H31.2866L33.487 24.2473C33.9905 24.7508 34.8062 24.7509 35.3098 24.2473L37.5103 22.0469H42.1328C44.2653 22.0469 46 20.3121 46 18.1797V7.86719C46 5.73473 44.2653 4 42.1328 4ZM18.7578 16.8906H8.44531C7.7328 16.8906 7.15625 16.3141 7.15625 15.6016C7.15625 14.8891 7.7328 14.3125 8.44531 14.3125H18.7578C19.4703 14.3125 20.0469 14.8891 20.0469 15.6016C20.0469 16.3141 19.4703 16.8906 18.7578 16.8906ZM18.7578 11.7344H8.44531C7.7328 11.7344 7.15625 11.1578 7.15625 10.4453C7.15625 9.7328 7.7328 9.15625 8.44531 9.15625H18.7578C19.4703 9.15625 20.0469 9.7328 20.0469 10.4453C20.0469 11.1578 19.4703 11.7344 18.7578 11.7344ZM39.5547 16.8906H29.2422C28.5297 16.8906 27.9531 16.3141 27.9531 15.6016C27.9531 14.8891 28.5297 14.3125 29.2422 14.3125H39.5547C40.2672 14.3125 40.8438 14.8891 40.8438 15.6016C40.8438 16.3141 40.2672 16.8906 39.5547 16.8906ZM39.5547 11.7344H29.2422C28.5297 11.7344 27.9531 11.1578 27.9531 10.4453C27.9531 9.7328 28.5297 9.15625 29.2422 9.15625H39.5547C40.2672 9.15625 40.8438 9.7328 40.8438 10.4453C40.8438 11.1578 40.2672 11.7344 39.5547 11.7344Z" fill="url(#paint4_linear)"/>
<defs>
<linearGradient id="paint0_linear" x1="13.6875" y1="27.375" x2="13.6875" y2="37.6875" gradientUnits="userSpaceOnUse">
<stop stop-color="#9E63FF"/>
<stop offset="1" stop-color="#FB3DD1"/>
</linearGradient>
<linearGradient id="paint1_linear" x1="13.6875" y1="37.6875" x2="13.6875" y2="48" gradientUnits="userSpaceOnUse">
<stop stop-color="#9E63FF"/>
<stop offset="1" stop-color="#FB3DD1"/>
</linearGradient>
<linearGradient id="paint2_linear" x1="34.3125" y1="27.375" x2="34.3125" y2="37.6875" gradientUnits="userSpaceOnUse">
<stop stop-color="#9E63FF"/>
<stop offset="1" stop-color="#FB3DD1"/>
</linearGradient>
<linearGradient id="paint3_linear" x1="34.3125" y1="37.6875" x2="34.3125" y2="48" gradientUnits="userSpaceOnUse">
<stop stop-color="#9E63FF"/>
<stop offset="1" stop-color="#FB3DD1"/>
</linearGradient>
<linearGradient id="paint4_linear" x1="24" y1="4" x2="24" y2="24.625" gradientUnits="userSpaceOnUse">
<stop stop-color="#9E63FF"/>
<stop offset="1" stop-color="#FB3DD1"/>
</linearGradient>
</defs>
</svg>
