<svg width="48" height="48" viewBox="0 0 48 48" fill="none" xmlns="http://www.w3.org/2000/svg">
<g clip-path="url(#clip0)">
<path d="M31.8953 32.8442H20.7484V30.8893C20.7484 29.5893 19.2473 28.9305 18.3704 29.8532L15.1192 33.2742C14.5749 33.847 14.5749 34.7756 15.1192 35.3484L18.3704 38.7695C19.2417 39.6863 20.7484 39.0451 20.7484 37.7334V35.7785H31.8953C32.6645 35.7785 33.2887 35.1216 33.2887 34.3123C33.2887 33.503 32.6645 32.8442 31.8953 32.8442Z" fill="url(#paint0_linear)"/>
<path d="M32.8805 42.6681L29.6293 39.5885C28.7468 38.7543 27.2513 39.3562 27.2513 40.5212V42.281H16.1043C15.3352 42.281 14.7109 42.8723 14.7109 43.6008C14.7109 44.3294 15.3352 44.9207 16.1043 44.9207H27.2513V46.6805C27.2513 47.8578 28.7579 48.4386 29.6293 47.6132L32.8805 44.5336C33.4248 44.0179 33.4248 43.1838 32.8805 42.6681Z" fill="url(#paint1_linear)"/>
<path d="M36.2302 14.876C33.8322 10.6209 29.1187 7.91113 24 7.91113C17.5008 7.91113 11.8633 12.2797 10.4388 18.2414C5.70333 18.7217 2 22.5692 2 27.2284C2 31.7936 5.61533 36.2667 11.9862 36.2667C11.4563 35.4816 11.1667 34.5671 11.1667 33.6084C11.1667 31.1219 12.5747 30.2305 15.8527 27.0618C17.301 25.6599 19.4588 25.2488 21.3527 26.0073C22.6452 26.5266 23.6132 27.5243 24.1027 28.7365H31.7935C34.5747 28.7365 36.8352 30.9217 36.8352 33.6101C36.8352 34.56 36.5418 35.4408 36.0523 36.1923C41.6422 35.5755 46 31.0227 46 25.5093C46 20.0739 41.7705 15.5441 36.2302 14.876Z" fill="url(#paint2_linear)"/>
</g>
<defs>
<linearGradient id="paint0_linear" x1="23.9998" y1="29.4224" x2="23.9998" y2="39.2001" gradientUnits="userSpaceOnUse">
<stop stop-color="#930BEB"/>
<stop offset="1" stop-color="#BE82E6"/>
</linearGradient>
<linearGradient id="paint1_linear" x1="23.9998" y1="39.2002" x2="23.9998" y2="48.0002" gradientUnits="userSpaceOnUse">
<stop stop-color="#930BEB"/>
<stop offset="1" stop-color="#BE82E6"/>
</linearGradient>
<linearGradient id="paint2_linear" x1="24" y1="7.91113" x2="24" y2="36.2667" gradientUnits="userSpaceOnUse">
<stop stop-color="#930BEB"/>
<stop offset="1" stop-color="#BE82E6"/>
</linearGradient>
<clipPath id="clip0">
<rect width="48" height="48" fill="white"/>
</clipPath>
</defs>
</svg>
