<svg width="48" height="48" viewBox="0 0 48 48" fill="none" xmlns="http://www.w3.org/2000/svg">
<path d="M20.4317 20.4083C30.6112 20.4083 38.8633 16.7352 38.8633 12.2042C38.8633 7.67313 30.6112 4 20.4317 4C10.2521 4 2 7.67313 2 12.2042C2 16.7352 10.2521 20.4083 20.4317 20.4083Z" fill="url(#paint0_linear)"/>
<path d="M24.6999 42.3338C23.4079 42.0049 22.4431 40.9514 22.1993 39.6645C21.6163 39.69 21.0266 39.7037 20.4317 39.7037C10.2502 39.7037 2 36.0337 2 31.4995C2 33.3916 2 34.6564 2 37.7724C2 42.3049 10.2502 45.9765 20.4317 45.9765C21.8959 45.9765 23.3141 45.893 24.6812 45.7481C24.088 44.6964 24.0607 43.3975 24.6999 42.3338Z" fill="url(#paint1_linear)"/>
<path d="M20.4317 37.4533C21.0078 37.4533 21.5737 37.438 22.1362 37.4158V36.4749C22.1362 34.8999 23.2118 33.5447 24.717 33.1697C24.3215 32.4998 24.1766 31.7379 24.2704 31.0032C23.0311 31.1191 21.7493 31.1822 20.4317 31.1822C10.2502 31.1822 2 27.5122 2 22.978C2 24.8701 2 26.1349 2 29.2509C2.0017 33.7817 10.2502 37.4533 20.4317 37.4533Z" fill="url(#paint2_linear)"/>
<path d="M20.4299 28.9306C22.2504 28.9306 24.0062 28.8096 25.6681 28.5897L27.0454 27.2124C27.7051 26.551 28.5779 26.2135 29.4574 26.2135C30.0489 26.2135 30.6421 26.3669 31.1756 26.6789C31.5643 25.1942 32.9109 24.1356 34.4723 24.1356H37.0292C37.0752 24.1356 37.1212 24.1459 37.1655 24.1476C38.2445 23.1061 38.8599 21.9487 38.8599 20.7265C38.8599 19.0611 38.8599 17.3258 38.8599 14.4536C38.8599 18.9861 30.6097 22.6578 20.4282 22.6578C10.2468 22.6578 2 18.9861 2 14.4536C2 16.3457 2 17.6105 2 20.7265C2 25.259 10.2485 28.9306 20.4299 28.9306Z" fill="url(#paint3_linear)"/>
<path d="M45.998 39.0304V36.4735L42.9553 35.9758C42.7763 35.2565 42.4933 34.5797 42.12 33.9559L43.8928 31.4297L42.0842 29.6211L39.5887 31.416C38.9666 31.0393 38.2847 30.7512 37.5603 30.5723L37.0284 27.5449H34.4716L33.9789 30.5637C33.2528 30.741 32.5676 31.024 31.9437 31.3973L29.455 29.6211L27.6464 31.4297L29.397 33.932C29.0169 34.5593 28.7288 35.2428 28.5481 35.9741L25.543 36.4735V39.0304L28.5464 39.5622C28.7254 40.2935 29.0135 40.9787 29.3953 41.606L27.6209 44.0862L29.4294 45.8965L31.9352 44.1424C32.5624 44.5192 33.246 44.8021 33.9704 44.9811L34.4716 47.9999H37.0284L37.5654 44.9726C38.2864 44.7919 38.9683 44.5021 39.5904 44.1254L42.1149 45.8965L43.9218 44.0862L42.12 41.5856C42.4933 40.9634 42.7763 40.285 42.9536 39.5622L45.998 39.0304ZM35.7705 41.3384C33.8034 41.3384 32.2045 39.7429 32.2045 37.7724C32.2045 35.8053 33.8034 34.2064 35.7705 34.2064C37.741 34.2064 39.3365 35.8053 39.3365 37.7724C39.3365 39.7429 37.741 41.3384 35.7705 41.3384Z" fill="url(#paint4_linear)"/>
<defs>
<linearGradient id="paint0_linear" x1="20.4317" y1="4" x2="20.4317" y2="20.4083" gradientUnits="userSpaceOnUse">
<stop stop-color="#2AE88C"/>
<stop offset="1" stop-color="#07CBCB"/>
</linearGradient>
<linearGradient id="paint1_linear" x1="13.35" y1="31.4995" x2="13.35" y2="45.9765" gradientUnits="userSpaceOnUse">
<stop stop-color="#2AE88C"/>
<stop offset="1" stop-color="#07CBCB"/>
</linearGradient>
<linearGradient id="paint2_linear" x1="13.3585" y1="22.978" x2="13.3585" y2="37.4533" gradientUnits="userSpaceOnUse">
<stop stop-color="#2AE88C"/>
<stop offset="1" stop-color="#07CBCB"/>
</linearGradient>
<linearGradient id="paint3_linear" x1="20.4299" y1="14.4536" x2="20.4299" y2="28.9306" gradientUnits="userSpaceOnUse">
<stop stop-color="#2AE88C"/>
<stop offset="1" stop-color="#07CBCB"/>
</linearGradient>
<linearGradient id="paint4_linear" x1="35.7705" y1="27.5449" x2="35.7705" y2="47.9999" gradientUnits="userSpaceOnUse">
<stop stop-color="#2AE88C"/>
<stop offset="1" stop-color="#07CBCB"/>
</linearGradient>
</defs>
</svg>
