<svg width="32" height="30" viewBox="0 0 32 30" fill="none" xmlns="http://www.w3.org/2000/svg">
<path d="M11.9013 1.77652L15.9236 0.770935L19.946 2.44691C20.3929 2.83797 21.4208 3.72066 21.9571 4.12289C22.6275 4.62568 23.9683 4.79328 24.4711 4.96088C24.8733 5.09496 26.4264 6.02233 27.1527 6.46926V9.65362L26.4823 12.838L23.9683 14.514H20.4488H11.0633L6.53815 13.676L4.35938 11.6648V8.98323L5.70016 6.97205L8.71692 5.79887L9.7225 4.12289L11.9013 1.77652Z" fill="url(#paint0_linear)"/>
<path d="M28.3575 19.5419C26.7486 19.5419 25.3743 20.648 24.9721 22.1564H22.3575L21.2179 18.4358C21.1173 18.067 20.7821 17.7989 20.3799 17.7989H16.7933V15.1844H22.5922C25.7765 15.1844 28.3911 12.5698 28.3911 9.38548C28.3911 6 25.4749 3.21788 21.9888 3.62011C20.6145 1.3743 18.2011 0 15.5531 0C12.3017 0 9.45251 2.04469 8.41341 5.06145C5.6648 5.12849 3.45251 7.3743 3.45251 10.1229C3.45251 12.905 5.73184 15.1844 8.51397 15.1844H15.0503V17.7989H11.4302C11.0615 17.7989 10.6927 18.067 10.5922 18.4358L9.45251 22.1564H6.87151C6.46927 20.648 5.12849 19.5419 3.48603 19.5419C1.57542 19.5419 0 21.1173 0 23.0279C0 24.9721 1.57542 26.514 3.48603 26.514C5.09497 26.514 6.46927 25.4078 6.87151 23.8994H10.1229C10.4916 23.8994 10.8603 23.6313 10.9609 23.2626L12.1006 19.5419H15.0503V23.1285C13.5419 23.5307 12.4358 24.8715 12.4358 26.514C12.4358 28.4581 14.0112 30 15.9218 30C17.8324 30 19.4078 28.4246 19.4078 26.514C19.4078 24.905 18.3017 23.5307 16.7933 23.1285V19.5419H19.743L20.8827 23.2626C20.9832 23.6313 21.3184 23.8994 21.7207 23.8994H24.9721C25.3743 25.4078 26.7151 26.514 28.3575 26.514C30.2682 26.514 31.8436 24.9385 31.8436 23.0279C31.8436 21.1173 30.2682 19.5419 28.3575 19.5419ZM5.19553 10.1229C5.19553 8.31285 6.67039 6.80447 8.51397 6.80447C8.61452 6.80447 8.71508 6.83799 8.94972 6.83799C9.38547 6.90503 9.82123 6.60335 9.92179 6.1676C10.5587 3.55307 12.905 1.7095 15.5866 1.7095C17.7989 1.7095 19.7765 2.94972 20.7821 4.92737C20.9497 5.29609 21.352 5.46369 21.7542 5.39665C22.0559 5.32961 22.3575 5.29609 22.6257 5.29609C24.8715 5.29609 26.6816 7.10614 26.6816 9.35195C26.6816 11.5978 24.8715 13.4078 22.6257 13.4078H8.48045C6.67039 13.4413 5.19553 11.9665 5.19553 10.1229ZM3.48603 24.771C2.51397 24.771 1.74302 24 1.74302 23.0279C1.74302 22.0559 2.51397 21.2849 3.48603 21.2849C4.4581 21.2849 5.22905 22.0559 5.22905 23.0279C5.22905 24 4.4581 24.771 3.48603 24.771ZM17.6648 26.514C17.6648 27.486 16.8939 28.257 15.9218 28.257C14.9497 28.257 14.1788 27.486 14.1788 26.514C14.1788 25.5419 14.9497 24.771 15.9218 24.771C16.8939 24.771 17.6648 25.5754 17.6648 26.514ZM28.3575 24.771C27.3855 24.771 26.6145 24 26.6145 23.0279C26.6145 22.0559 27.3855 21.2849 28.3575 21.2849C29.3296 21.2849 30.1006 22.0559 30.1006 23.0279C30.1006 24 29.2961 24.771 28.3575 24.771Z" fill="url(#paint1_linear)"/>
<defs>
<linearGradient id="paint0_linear" x1="18.4402" y1="-5.72914" x2="18.4402" y2="19.5283" gradientUnits="userSpaceOnUse">
<stop stop-color="#C7DAFD"/>
<stop offset="1" stop-color="#E9F1FF"/>
</linearGradient>
<linearGradient id="paint1_linear" x1="0" y1="0" x2="21.9692" y2="34.5046" gradientUnits="userSpaceOnUse">
<stop stop-color="#2569E6"/>
<stop offset="1" stop-color="#3649EF"/>
</linearGradient>
</defs>
</svg>
