<svg width="38" height="35" viewBox="0 0 38 35" fill="none" xmlns="http://www.w3.org/2000/svg">
<path d="M32.229 0H5.77103C2.57477 0 0 2.58929 0 5.80357V22.4107C0 25.625 2.57477 28.2143 5.77103 28.2143H17.0023L11.6752 33.1696C11.4533 33.3929 11.3645 33.6161 11.3201 33.9286C11.3201 34.1964 11.4089 34.4643 11.6308 34.6875C11.8528 34.9107 12.1192 35 12.4299 35C12.6963 35 12.9182 34.9107 13.1846 34.7321L19 29.2411L24.8598 34.7321C25.0818 34.9554 25.3925 35 25.6145 35C25.9252 35 26.1916 34.8661 26.4135 34.6875C26.5911 34.5089 26.7243 34.2411 26.7243 33.9286C26.7243 33.6607 26.5911 33.3929 26.3692 33.1696L20.9977 28.2143H32.229C35.4252 28.2143 38 25.625 38 22.4107V5.80357C38 2.58929 35.3808 0 32.229 0ZM23.0397 21.9643C21.3972 23.6161 19.2664 24.5089 16.9579 24.5089C12.2079 24.5089 8.34579 20.625 8.34579 15.8482C8.34579 13.5714 9.23364 11.3839 10.8762 9.73214C12.5187 8.08036 14.6495 7.1875 16.9579 7.1875C17.535 7.1875 18.0234 7.67857 18.0234 8.25893V14.7768H24.5047C25.0818 14.7768 25.5701 15.2679 25.5701 15.8482C25.5701 18.125 24.6822 20.3125 23.0397 21.9643ZM28.5888 12.9018H21.0421C20.465 12.9018 19.9766 12.4107 19.9766 11.8304V4.24107C19.9766 3.66071 20.465 3.16964 21.0421 3.16964C23.3061 3.16964 25.4813 4.0625 27.1238 5.71429C28.7664 7.36607 29.6542 9.50893 29.6542 11.8304C29.6098 12.4554 29.1659 12.9018 28.5888 12.9018Z" fill="url(#paint0_linear)"/>
<defs>
<linearGradient id="paint0_linear" x1="8.14286" y1="4.0446e-07" x2="19.2863" y2="32.4753" gradientUnits="userSpaceOnUse">
<stop stop-color="#619CF4"/>
<stop offset="1" stop-color="#1671DC"/>
</linearGradient>
</defs>
</svg>
