<svg width="39" height="32" viewBox="0 0 39 32" fill="none" xmlns="http://www.w3.org/2000/svg">
<path d="M1.8181 18.6209L5.51264 10.4248V15.3648H9.88774L3.29284 19.8583C2.45849 20.4268 1.4032 19.5413 1.8181 18.6209Z" fill="#1B428F"/>
<path d="M36.9514 28.1121L33.2569 19.916V24.856H28.8818L35.4767 29.3495C36.311 29.918 37.3663 29.0325 36.9514 28.1121Z" fill="#1B428F"/>
<rect x="13.6484" y="10.9951" width="20" height="14" rx="1" stroke="#1B428F" stroke-width="2.5"/>
<path fill-rule="evenodd" clip-rule="evenodd" d="M6.54688 0.229492C5.30423 0.229492 4.29688 1.23685 4.29688 2.47949V14.4795C4.29688 15.7221 5.30423 16.7295 6.54688 16.7295H9.57617V14.2295H6.79688V2.72949H24.2969V7.33142H26.7969V2.47949C26.7969 1.23685 25.7895 0.229492 24.5469 0.229492H6.54688Z" fill="#1B428F"/>
</svg>
