<svg width="38" height="35" viewBox="0 0 38 35" fill="none" xmlns="http://www.w3.org/2000/svg">
<path d="M5.12533 5.12533C-1.70844 11.9591 -1.70844 23.0409 5.12533 29.8747C11.9591 36.7084 23.0409 36.7084 29.8747 29.8747C36.7084 23.0409 36.7084 11.9591 29.8747 5.12533C23.0409 -1.70844 11.9591 -1.70844 5.12533 5.12533ZM22.2282 16.7243C20.3074 20.0488 18.3865 23.3364 16.5026 26.661C16.5026 26.661 16.5026 26.6979 16.4657 26.6979C16.3179 26.9565 16.1702 27.1781 15.8747 27.0673C15.5422 26.9565 15.6161 26.6609 15.653 26.4024C15.8008 25.5528 15.9485 24.7401 16.1332 23.8905C16.3918 22.4129 16.6873 20.9723 16.9459 19.4947C16.9829 19.3839 16.9828 19.2361 16.9828 19.0515C16.7982 19.0515 16.6504 19.0145 16.5026 19.0145C15.4314 19.0145 14.3232 19.0145 13.252 19.0145C12.624 19.0145 12.4763 18.7559 12.7718 18.2018C14.6926 14.8773 16.6135 11.5897 18.4974 8.26517C18.4974 8.26517 18.4974 8.22823 18.5343 8.22823C18.6821 7.96966 18.8298 7.74802 19.1253 7.85884C19.4578 7.96966 19.3839 8.26517 19.347 8.52375C19.1992 9.37335 19.0515 10.186 18.8668 11.0356C18.6082 12.5132 18.3127 13.9538 18.0541 15.4314C18.0172 15.5422 18.0172 15.69 18.0172 15.8747C18.2018 15.8747 18.3496 15.9116 18.4974 15.9116C19.5686 15.9116 20.6768 15.9116 21.748 15.9116C22.376 15.9116 22.5237 16.1702 22.2282 16.7243Z" fill="url(#paint0_linear)"/>
<defs>
<linearGradient id="paint0_linear" x1="7.5" y1="4.0446e-07" x2="19.375" y2="31.875" gradientUnits="userSpaceOnUse">
<stop stop-color="#F48D61"/>
<stop offset="1" stop-color="#DC5116"/>
</linearGradient>
</defs>
</svg>
