<svg xmlns="http://www.w3.org/2000/svg" xmlns:xlink="http://www.w3.org/1999/xlink" width="35" height="35" viewBox="0 0 35 35"><defs><linearGradient id="a" x1="0.5" x2="0.5" y2="1" gradientUnits="objectBoundingBox"><stop offset="0" stop-color="#19c791"/><stop offset="1" stop-color="#1db486"/></linearGradient></defs><g transform="translate(-98 -1168)"><rect width="35" height="35" transform="translate(98 1168)" fill="none"/><path d="M32.35,3.859H1.281A1.283,1.283,0,0,0,0,5.141V31.815A1.281,1.281,0,0,0,1.281,33.1H13.342a.989.989,0,0,1,.823.44l2.1,3.151a.659.659,0,0,0,1.1,0l2.1-3.151a.989.989,0,0,1,.823-.44H32.35a1.281,1.281,0,0,0,1.281-1.281V5.141A1.283,1.283,0,0,0,32.35,3.859ZM4.518,8.466H18.662a.989.989,0,1,1,0,1.978H4.518a.989.989,0,0,1,0-1.978ZM14.131,27H4.518a.989.989,0,1,1,0-1.978h9.614a.989.989,0,1,1,0,1.978Zm-10.6-6.623a.989.989,0,0,1,.989-.989h8.967a.989.989,0,1,1,0,1.978H4.518A.989.989,0,0,1,3.528,20.378Zm12.378-4.645H4.518a.989.989,0,0,1,0-1.978H15.907a.989.989,0,0,1,0,1.978ZM29.813,11.08c-1.258,3.038-4.8,11.593-5.972,14.419a.985.985,0,0,1-.282.383L18.951,29.7a.99.99,0,0,1-1.616-.67l-.556-5.96a1,1,0,0,1,.071-.471L22.822,8.185a3.783,3.783,0,1,1,6.99,2.9Z" transform="translate(98 1165.141)" fill="url(#a)"/><path d="M284.67,145.384l.359,3.85L288,146.765l4.409-10.645-3.335-1.381Z" transform="translate(-167.899 1042.891)" fill="url(#a)"/><path d="M366.081,64.171a1.8,1.8,0,0,0-2.358.977l-.713,1.72,3.335,1.381.713-1.72A1.805,1.805,0,0,0,366.081,64.171Z" transform="translate(-241.073 1108.935)" fill="url(#a)"/></g></svg>