<svg xmlns="http://www.w3.org/2000/svg" xmlns:xlink="http://www.w3.org/1999/xlink" width="35" height="35.108" viewBox="0 0 35 35.108"><defs><linearGradient id="a" x1="0.5" x2="0.5" y2="1" gradientUnits="objectBoundingBox"><stop offset="0" stop-color="#ff6e72"/><stop offset="1" stop-color="#fe428d"/></linearGradient></defs><g transform="translate(-898 -797)"><rect width="35" height="35" transform="translate(898 797)" fill="none"/><path d="M72.182,9.746l-.721,4.206a1.028,1.028,0,0,0,1.492,1.084l3.777-1.986,3.777,1.986A1.03,1.03,0,0,0,81.99,13.9l-.712-4.15,3.056-2.979a1.029,1.029,0,0,0-.57-1.754L79.541,4.4,77.652.573a1.029,1.029,0,0,0-1.845,0L73.919,4.4,69.7,5.013a1.029,1.029,0,0,0-.57,1.754Zm0,0" transform="translate(833.869 797)" fill="url(#a)"/><path d="M129.281,272.151a3.768,3.768,0,1,0,3.768-3.768A3.772,3.772,0,0,0,129.281,272.151Zm0,0" transform="translate(777.55 547.02)" fill="url(#a)"/><path d="M25.273,301.326a1.449,1.449,0,0,0-2.049,0l-6.637,6.637a1.028,1.028,0,0,1-.727.3H10.338a1.027,1.027,0,0,1-.727-.3l-6.637-6.637a1.449,1.449,0,0,0-2.05,2.049l7.946,7.946a1.028,1.028,0,0,1,.3.727v3.328h7.853v-3.328a1.028,1.028,0,0,1,.3-.727l7.946-7.946a1.448,1.448,0,0,0,0-2.049Zm0,0" transform="translate(897.5 516.731)" fill="url(#a)"/></g></svg>