<svg xmlns="http://www.w3.org/2000/svg" xmlns:xlink="http://www.w3.org/1999/xlink" width="35" height="35" viewBox="0 0 35 35"><defs><linearGradient id="a" x1="0.5" x2="0.5" y2="1" gradientUnits="objectBoundingBox"><stop offset="0" stop-color="#af53ff"/><stop offset="1" stop-color="#582a80"/></linearGradient></defs><g transform="translate(-898 -966)"><rect width="35" height="35" transform="translate(898 966)" fill="none"/><path d="M16.813,0A16.813,16.813,0,1,0,33.626,16.812,16.812,16.812,0,0,0,16.813,0ZM4.566,23.145c0-5.252,4.612-5.251,5.636-6.624l.117-.626a5.02,5.02,0,0,1-2.453-4.541c0-2.707,1.761-4.9,3.933-4.9a4.1,4.1,0,0,1,3.7,3.264,5.987,5.987,0,0,0-3.785,5.854,6.514,6.514,0,0,0,2.01,4.833c-.2.1-.424.208-.616.3A8.64,8.64,0,0,0,9.7,23.145H4.566Zm12.3,4.215H9.58c0-5.252,4.612-5.25,5.636-6.624l.117-.626a5.02,5.02,0,0,1-2.453-4.541c0-2.707,1.761-4.9,3.933-4.9s3.933,2.2,3.933,4.9a5.036,5.036,0,0,1-2.416,4.524l.133.712c1.123,1.307,5.582,1.392,5.582,6.555Zm7.061-4.215h0A8.644,8.644,0,0,0,20.514,20.7c-.2-.093-.418-.2-.615-.3a6.529,6.529,0,0,0,2.01-4.834,5.986,5.986,0,0,0-3.784-5.854,4.1,4.1,0,0,1,3.7-3.264c2.172,0,3.933,2.2,3.933,4.9a5.037,5.037,0,0,1-2.416,4.524l.133.712c1.123,1.306,5.582,1.392,5.582,6.556H23.925Z" transform="translate(897.999 967)" fill="url(#a)"/></g></svg>