<svg width="30" height="23" viewBox="0 0 30 23" fill="none" xmlns="http://www.w3.org/2000/svg">
<path d="M0.9375 21.7695L15.3711 17.9795L29.0799 21.7695" stroke="#1B428F" stroke-width="2.5"/>
<circle cx="15.2396" cy="3.92024" r="3.24348" fill="#1B428F"/>
<path d="M17.882 13.6958V18.9442H20.382V13.6958H17.882ZM12.5977 18.9442V13.6958H10.0977V18.9442H12.5977ZM15.2398 11.0088C16.6856 11.0088 17.882 12.1983 17.882 13.6958H20.382C20.382 10.8446 18.0932 8.50879 15.2398 8.50879V11.0088ZM15.2398 8.50879C12.3864 8.50879 10.0977 10.8446 10.0977 13.6958H12.5977C12.5977 12.1983 13.7941 11.0088 15.2398 11.0088V8.50879Z" fill="#1B428F"/>
<circle cx="22.1328" cy="7.6377" r="2.5" fill="#1B428F"/>
<path d="M23.8828 15.5666V20.1377H26.3828V15.5666H23.8828ZM20.3828 19.2664V15.5666H17.8828V19.2664H20.3828ZM22.1328 13.3877C22.9476 13.3877 23.8828 14.2011 23.8828 15.5666H26.3828C26.3828 13.1447 24.6317 10.8877 22.1328 10.8877V13.3877ZM22.1328 10.8877C19.6339 10.8877 17.8828 13.1447 17.8828 15.5666H20.3828C20.3828 14.2011 21.318 13.3877 22.1328 13.3877V10.8877Z" fill="#1B428F"/>
<circle cx="8.34766" cy="7.6377" r="2.5" fill="#1B428F"/>
<path d="M10.0977 15.5666V19.5353H12.5977V15.5666H10.0977ZM6.59766 20.1377V15.5666H4.09766V20.1377H6.59766ZM8.34766 13.3877C9.16247 13.3877 10.0977 14.2011 10.0977 15.5666H12.5977C12.5977 13.1447 10.8465 10.8877 8.34766 10.8877V13.3877ZM8.34766 10.8877C5.84876 10.8877 4.09766 13.1447 4.09766 15.5666H6.59766C6.59766 14.2011 7.53284 13.3877 8.34766 13.3877V10.8877Z" fill="#1B428F"/>
</svg>
