<svg width="48" height="48" viewBox="0 0 48 48" fill="none" xmlns="http://www.w3.org/2000/svg">
<path d="M24 5.8C23.5582 5.8 23.2 5.4418 23.2 5V0.8C23.2 0.3582 23.5582 0 24 0C24.4418 0 24.8 0.3582 24.8 0.8V5C24.8 5.4418 24.4418 5.8 24 5.8ZM16.8 5V0.8C16.8 0.3582 16.4418 0 16 0C15.5582 0 15.2 0.3582 15.2 0.8V5C15.2 5.4418 15.5582 5.8 16 5.8C16.4418 5.8 16.8 5.4418 16.8 5ZM32.8 5V0.8C32.8 0.3582 32.4418 0 32 0C31.5582 0 31.2 0.3582 31.2 0.8V5C31.2 5.4418 31.5582 5.8 32 5.8C32.4418 5.8 32.8 5.4418 32.8 5ZM24.8 47.2V43C24.8 42.5582 24.4418 42.2 24 42.2C23.5582 42.2 23.2 42.5582 23.2 43V47.2C23.2 47.6418 23.5582 48 24 48C24.4418 48 24.8 47.6418 24.8 47.2ZM32.8 47.2V43C32.8 42.5582 32.4418 42.2 32 42.2C31.5582 42.2 31.2 42.5582 31.2 43V47.2C31.2 47.6418 31.5582 48 32 48C32.4418 48 32.8 47.6418 32.8 47.2ZM16.8 47.2V43C16.8 42.5582 16.4418 42.2 16 42.2C15.5582 42.2 15.2 42.5582 15.2 43V47.2C15.2 47.6418 15.5582 48 16 48C16.4418 48 16.8 47.6418 16.8 47.2ZM48 24C48 23.5582 47.6418 23.2 47.2 23.2H43C42.5582 23.2 42.2 23.5582 42.2 24C42.2 24.4418 42.5582 24.8 43 24.8H47.2C47.6418 24.8 48 24.4418 48 24ZM48 16C48 15.5582 47.6418 15.2 47.2 15.2H43C42.5582 15.2 42.2 15.5582 42.2 16C42.2 16.4418 42.5582 16.8 43 16.8H47.2C47.6418 16.8 48 16.4418 48 16ZM48 32C48 31.5582 47.6418 31.2 47.2 31.2H43C42.5582 31.2 42.2 31.5582 42.2 32C42.2 32.4418 42.5582 32.8 43 32.8H47.2C47.6418 32.8 48 32.4418 48 32ZM5.8 24C5.8 23.5582 5.4418 23.2 5 23.2H0.8C0.3582 23.2 0 23.5582 0 24C0 24.4418 0.3582 24.8 0.8 24.8H5C5.4418 24.8 5.8 24.4418 5.8 24ZM5.8 32C5.8 31.5582 5.4418 31.2 5 31.2H0.8C0.3582 31.2 0 31.5582 0 32C0 32.4418 0.3582 32.8 0.8 32.8H5C5.4418 32.8 5.8 32.4418 5.8 32ZM5.8 16C5.8 15.5582 5.4418 15.2 5 15.2H0.8C0.3582 15.2 0 15.5582 0 16C0 16.4418 0.3582 16.8 0.8 16.8H5C5.4418 16.8 5.8 16.4418 5.8 16ZM39.8 12.2V35.8C39.8 38.006 38.006 39.8 35.8 39.8H12.2C9.994 39.8 8.2 38.006 8.2 35.8V12.2C8.2 9.994 9.994 8.2 12.2 8.2H35.8C38.006 8.2 39.8 9.994 39.8 12.2ZM25.0606 26.8894C24.4745 26.3032 23.5257 26.3029 22.9394 26.8893C22.3532 27.4753 22.3528 28.4244 22.9393 29.0106C23.5254 29.5968 24.4743 29.597 25.0605 29.0107C25.6469 28.4246 25.647 27.4758 25.0606 26.8894ZM27.677 24.273C25.6449 22.2408 22.3555 22.2405 20.3231 24.273C20.0107 24.5854 20.0107 25.0919 20.3231 25.4043C20.6356 25.7168 21.142 25.7167 21.4545 25.4043C22.8613 23.9974 25.1386 23.9973 26.5455 25.4043C26.8579 25.7167 27.3644 25.7167 27.6769 25.4043C27.9894 25.092 27.9894 24.5854 27.677 24.273ZM30.6469 21.3032C26.9731 17.6295 21.0273 17.6292 17.3531 21.3032C17.0407 21.6156 17.0407 22.1221 17.3531 22.4345C17.6656 22.7469 18.172 22.7469 18.4845 22.4345C21.5326 19.3862 26.4669 19.3858 29.5154 22.4345C29.8278 22.7469 30.3343 22.7469 30.6468 22.4345C30.9593 22.1222 30.9593 21.6156 30.6469 21.3032Z" fill="url(#paint0_linear)"/>
<defs>
<linearGradient id="paint0_linear" x1="24" y1="0" x2="24" y2="48" gradientUnits="userSpaceOnUse">
<stop stop-color="#2AE88C"/>
<stop offset="1" stop-color="#07CBCB"/>
</linearGradient>
</defs>
</svg>
