<svg width="48" height="48" viewBox="0 0 48 48" fill="none" xmlns="http://www.w3.org/2000/svg">
<path d="M24 26.25C25.2426 26.25 26.25 25.2426 26.25 24C26.25 22.7574 25.2426 21.75 24 21.75C22.7574 21.75 21.75 22.7574 21.75 24C21.75 25.2426 22.7574 26.25 24 26.25Z" fill="url(#paint0_linear)"/>
<path d="M3.75 16.5H12.75C12.9489 16.5 13.1397 16.421 13.2803 16.2803C13.421 16.1397 13.5 15.9489 13.5 15.75V3.75C13.5 3.55109 13.421 3.36032 13.2803 3.21967C13.1397 3.07902 12.9489 3 12.75 3H3.75C3.55109 3 3.36032 3.07902 3.21967 3.21967C3.07902 3.36032 3 3.55109 3 3.75V15.75C3 15.9489 3.07902 16.1397 3.21967 16.2803C3.36032 16.421 3.55109 16.5 3.75 16.5ZM7.5 13.5H9V15H7.5V13.5Z" fill="url(#paint1_linear)"/>
<path d="M3 41.25C3 41.4489 3.07902 41.6397 3.21967 41.7803C3.36032 41.921 3.55109 42 3.75 42H15.75C15.9489 42 16.1397 41.921 16.2803 41.7803C16.421 41.6397 16.5 41.4489 16.5 41.25V40.5H3V41.25Z" fill="url(#paint2_linear)"/>
<path d="M24.99 28.9725C25.0062 28.8338 25.0613 28.7025 25.1489 28.5937C25.2365 28.4849 25.353 28.403 25.485 28.3575C25.6687 28.2916 25.8489 28.2165 26.025 28.1325C26.1504 28.0696 26.2913 28.0439 26.4308 28.0585C26.5704 28.0731 26.7028 28.1274 26.8125 28.215L28.23 29.3175L29.3175 28.23L28.215 26.8125C28.1274 26.7028 28.0731 26.5704 28.0585 26.4308C28.0439 26.2913 28.0696 26.1504 28.1325 26.025C28.215 25.8525 28.29 25.6725 28.3575 25.4925C28.4014 25.3588 28.4827 25.2405 28.5916 25.1515C28.7006 25.0624 28.8328 25.0064 28.9725 24.99L30.75 24.765V23.235L28.9725 23.01C28.8328 22.9936 28.7006 22.9376 28.5916 22.8485C28.4827 22.7595 28.4014 22.6412 28.3575 22.5075C28.29 22.3275 28.215 22.1475 28.1325 21.975C28.0696 21.8496 28.0439 21.7087 28.0585 21.5692C28.0731 21.4296 28.1274 21.2972 28.215 21.1875L29.3175 19.77L28.23 18.6825L26.8125 19.785C26.7028 19.8726 26.5704 19.9269 26.4308 19.9415C26.2913 19.9561 26.1504 19.9304 26.025 19.8675C25.8525 19.785 25.6725 19.71 25.4925 19.6425C25.3588 19.5986 25.2405 19.5173 25.1515 19.4084C25.0624 19.2994 25.0064 19.1673 24.99 19.0275L24.765 17.25H23.235L23.01 19.0275C22.9936 19.1673 22.9376 19.2994 22.8485 19.4084C22.7595 19.5173 22.6412 19.5986 22.5075 19.6425C22.3275 19.71 22.1475 19.785 21.975 19.8675C21.8496 19.9304 21.7087 19.9561 21.5692 19.9415C21.4296 19.9269 21.2972 19.8726 21.1875 19.785L19.77 18.6825L18.6825 19.77L19.785 21.1875C19.8726 21.2972 19.9269 21.4296 19.9415 21.5692C19.9561 21.7087 19.9304 21.8496 19.8675 21.975C19.785 22.1475 19.71 22.3275 19.6425 22.5075C19.5986 22.6412 19.5173 22.7595 19.4084 22.8485C19.2994 22.9376 19.1673 22.9936 19.0275 23.01L17.25 23.235V24.765L19.0275 24.99C19.1673 25.0064 19.2994 25.0624 19.4084 25.1515C19.5173 25.2405 19.5986 25.3588 19.6425 25.4925C19.71 25.6725 19.785 25.8525 19.8675 26.025C19.9304 26.1504 19.9561 26.2913 19.9415 26.4308C19.9269 26.5704 19.8726 26.7028 19.785 26.8125L18.6825 28.23L19.77 29.3175L21.1875 28.215C21.2972 28.1274 21.4296 28.0731 21.5692 28.0585C21.7087 28.0439 21.8496 28.0696 21.975 28.1325C22.1511 28.2165 22.3313 28.2916 22.515 28.3575C22.647 28.403 22.7635 28.4849 22.8511 28.5937C22.9387 28.7025 22.9938 28.8338 23.01 28.9725L23.235 30.75H24.765L24.99 28.9725ZM20.25 24C20.25 23.2583 20.4699 22.5333 20.882 21.9166C21.294 21.2999 21.8797 20.8193 22.5649 20.5355C23.2502 20.2516 24.0042 20.1774 24.7316 20.3221C25.459 20.4667 26.1272 20.8239 26.6517 21.3483C27.1761 21.8728 27.5333 22.541 27.6779 23.2684C27.8226 23.9958 27.7484 24.7498 27.4645 25.4351C27.1807 26.1203 26.7001 26.706 26.0834 27.118C25.4667 27.5301 24.7417 27.75 24 27.75C23.0058 27.7488 22.0527 27.3533 21.3497 26.6503C20.6467 25.9473 20.2512 24.9942 20.25 24Z" fill="url(#paint3_linear)"/>
<path d="M15.75 33H3.75C3.55109 33 3.36032 33.079 3.21967 33.2197C3.07902 33.3603 3 33.5511 3 33.75V39H16.5V33.75C16.5 33.5511 16.421 33.3603 16.2803 33.2197C16.1397 33.079 15.9489 33 15.75 33Z" fill="url(#paint4_linear)"/>
<path d="M40.5 32.25H42C42.1989 32.25 42.3897 32.171 42.5303 32.0303C42.671 31.8897 42.75 31.6989 42.75 31.5H39.75C39.75 31.6989 39.829 31.8897 39.9697 32.0303C40.1103 32.171 40.3011 32.25 40.5 32.25Z" fill="url(#paint5_linear)"/>
<path d="M44.25 31.5C44.2482 32.0962 44.0106 32.6675 43.589 33.089C43.1675 33.5106 42.5962 33.7482 42 33.75H40.5C39.9038 33.7482 39.3325 33.5106 38.911 33.089C38.4894 32.6675 38.2518 32.0962 38.25 31.5C38.0511 31.5 37.8603 31.579 37.7197 31.7197C37.579 31.8603 37.5 32.0511 37.5 32.25V44.25C37.5 44.4489 37.579 44.6397 37.7197 44.7803C37.8603 44.921 38.0511 45 38.25 45H44.25C44.4489 45 44.6397 44.921 44.7803 44.7803C44.921 44.6397 45 44.4489 45 44.25V32.25C45 32.0511 44.921 31.8603 44.7803 31.7197C44.6397 31.579 44.4489 31.5 44.25 31.5Z" fill="url(#paint6_linear)"/>
<path d="M36 11.25H37.5C37.5 11.0511 37.579 10.8603 37.7197 10.7197C37.8603 10.579 38.0511 10.5 38.25 10.5H43.5V3H30V10.5H35.25C35.4489 10.5 35.6397 10.579 35.7803 10.7197C35.921 10.8603 36 11.0511 36 11.25Z" fill="url(#paint7_linear)"/>
<path d="M44.3989 14.25L44.7214 12H38.9989C38.9989 12.1989 38.9199 12.3897 38.7792 12.5303C38.6385 12.671 38.4478 12.75 38.2489 12.75H35.2489C35.05 12.75 34.8592 12.671 34.7185 12.5303C34.5779 12.3897 34.4989 12.1989 34.4989 12H28.7764L29.0989 14.25H44.3989Z" fill="url(#paint8_linear)"/>
<path d="M8.13703 43.5L7.76953 45H11.7295L11.362 43.5H8.13703Z" fill="url(#paint9_linear)"/>
<path d="M37.5 16.5H36V22.5H33.75V24H36.75C36.9489 24 37.1397 23.921 37.2803 23.7803C37.421 23.6397 37.5 23.4489 37.5 23.25V16.5Z" fill="url(#paint10_linear)"/>
<path d="M8.25 24V30H9.75V24.75H14.25V23.25H9C8.80109 23.25 8.61032 23.329 8.46967 23.4697C8.32902 23.6103 8.25 23.8011 8.25 24Z" fill="url(#paint11_linear)"/>
<path d="M23.25 14.25H24.75V9.75C24.75 9.55109 24.671 9.36032 24.5303 9.21967C24.3897 9.07902 24.1989 9 24 9H16.5V10.5H23.25V14.25Z" fill="url(#paint12_linear)"/>
<path d="M24.75 33.75H23.25V39.75C23.25 39.9489 23.329 40.1397 23.4697 40.2803C23.6103 40.421 23.8011 40.5 24 40.5H34.5V39H24.75V33.75Z" fill="url(#paint13_linear)"/>
<defs>
<linearGradient id="paint0_linear" x1="24" y1="21.75" x2="24" y2="26.25" gradientUnits="userSpaceOnUse">
<stop stop-color="#9734FA"/>
<stop offset="1" stop-color="#E250FA"/>
</linearGradient>
<linearGradient id="paint1_linear" x1="8.25" y1="3" x2="8.25" y2="16.5" gradientUnits="userSpaceOnUse">
<stop stop-color="#9734FA"/>
<stop offset="1" stop-color="#E250FA"/>
</linearGradient>
<linearGradient id="paint2_linear" x1="9.75" y1="40.5" x2="9.75" y2="42" gradientUnits="userSpaceOnUse">
<stop stop-color="#9734FA"/>
<stop offset="1" stop-color="#E250FA"/>
</linearGradient>
<linearGradient id="paint3_linear" x1="24" y1="17.25" x2="24" y2="30.75" gradientUnits="userSpaceOnUse">
<stop stop-color="#9734FA"/>
<stop offset="1" stop-color="#E250FA"/>
</linearGradient>
<linearGradient id="paint4_linear" x1="9.75" y1="33" x2="9.75" y2="39" gradientUnits="userSpaceOnUse">
<stop stop-color="#9734FA"/>
<stop offset="1" stop-color="#E250FA"/>
</linearGradient>
<linearGradient id="paint5_linear" x1="41.25" y1="31.5" x2="41.25" y2="32.25" gradientUnits="userSpaceOnUse">
<stop stop-color="#9734FA"/>
<stop offset="1" stop-color="#E250FA"/>
</linearGradient>
<linearGradient id="paint6_linear" x1="41.25" y1="31.5" x2="41.25" y2="45" gradientUnits="userSpaceOnUse">
<stop stop-color="#9734FA"/>
<stop offset="1" stop-color="#E250FA"/>
</linearGradient>
<linearGradient id="paint7_linear" x1="36.75" y1="3" x2="36.75" y2="11.25" gradientUnits="userSpaceOnUse">
<stop stop-color="#9734FA"/>
<stop offset="1" stop-color="#E250FA"/>
</linearGradient>
<linearGradient id="paint8_linear" x1="36.7489" y1="12" x2="36.7489" y2="14.25" gradientUnits="userSpaceOnUse">
<stop stop-color="#9734FA"/>
<stop offset="1" stop-color="#E250FA"/>
</linearGradient>
<linearGradient id="paint9_linear" x1="9.74953" y1="43.5" x2="9.74953" y2="45" gradientUnits="userSpaceOnUse">
<stop stop-color="#9734FA"/>
<stop offset="1" stop-color="#E250FA"/>
</linearGradient>
<linearGradient id="paint10_linear" x1="35.625" y1="16.5" x2="35.625" y2="24" gradientUnits="userSpaceOnUse">
<stop stop-color="#9734FA"/>
<stop offset="1" stop-color="#E250FA"/>
</linearGradient>
<linearGradient id="paint11_linear" x1="11.25" y1="23.25" x2="11.25" y2="30" gradientUnits="userSpaceOnUse">
<stop stop-color="#9734FA"/>
<stop offset="1" stop-color="#E250FA"/>
</linearGradient>
<linearGradient id="paint12_linear" x1="20.625" y1="9" x2="20.625" y2="14.25" gradientUnits="userSpaceOnUse">
<stop stop-color="#9734FA"/>
<stop offset="1" stop-color="#E250FA"/>
</linearGradient>
<linearGradient id="paint13_linear" x1="28.875" y1="33.75" x2="28.875" y2="40.5" gradientUnits="userSpaceOnUse">
<stop stop-color="#9734FA"/>
<stop offset="1" stop-color="#E250FA"/>
</linearGradient>
</defs>
</svg>
