<svg xmlns="http://www.w3.org/2000/svg" xmlns:xlink="http://www.w3.org/1999/xlink" width="35" height="35" viewBox="0 0 35 35"><defs><linearGradient id="a" x1="0.5" x2="0.5" y2="1" gradientUnits="objectBoundingBox"><stop offset="0" stop-color="#2569e9"/><stop offset="1" stop-color="#4183ff"/></linearGradient></defs><g transform="translate(-98 -825)"><rect width="35" height="35" transform="translate(98 825)" fill="none"/><path d="M15.9,0a15.9,15.9,0,1,0,15.9,15.9A15.9,15.9,0,0,0,15.9,0ZM17,17.848a1.072,1.072,0,0,1-.013.125c0,.031-.006.064-.013.094s-.019.064-.03.1a1.125,1.125,0,0,1-.04.114c0,.006,0,.013-.007.02a1.09,1.09,0,0,1-.082.144l-.006.008a1.1,1.1,0,0,1-.116.14l-.036.034a1.053,1.053,0,0,1-.116.1l-.038.027a1.1,1.1,0,0,1-.165.089c-.012.006-.025.009-.038.014a1.1,1.1,0,0,1-.148.046l-.054.012a1.1,1.1,0,0,1-.2.02c-.013,0-.027,0-.041,0a1.106,1.106,0,0,1-.188-.02c-.019,0-.038-.012-.057-.018a1.116,1.116,0,0,1-.165-.056l-.018-.006-6.1-2.876a1.1,1.1,0,0,1,.938-1.99L14.8,16.093V6.6a1.1,1.1,0,1,1,2.2,0V17.828h0C17,17.834,17,17.841,17,17.848Z" transform="translate(97.999 828)" fill="url(#a)"/></g></svg>