<svg xmlns="http://www.w3.org/2000/svg" xmlns:xlink="http://www.w3.org/1999/xlink" width="35" height="35" viewBox="0 0 35 35"><defs><linearGradient id="a" x1="0.5" x2="0.5" y2="1" gradientUnits="objectBoundingBox"><stop offset="0" stop-color="#61a0ff"/><stop offset="1" stop-color="#0951c1"/></linearGradient></defs><g transform="translate(-498 -966.245)"><rect width="35" height="35" transform="translate(498 966.245)" fill="none"/><path d="M11.249,316.949H4.388v-7.022a.827.827,0,0,0-.827-.827H.927a.827.827,0,0,0-.827.827V319.1a2.15,2.15,0,0,0,2.147,2.147h9a.827.827,0,0,0,.827-.827v-2.627A.826.826,0,0,0,11.249,316.949Z" transform="translate(497.907 679.75)" fill="url(#a)"/><path d="M145.59,139.215v-2.641a.827.827,0,0,0-.827-.827h-4.714v-4.721a.827.827,0,0,0-.827-.827h-2.641a.827.827,0,0,0-.827.827v4.714h-4.728a.827.827,0,0,0-.827.827v2.641a.827.827,0,0,0,.827.827h4.714v4.728a.827.827,0,0,0,.827.827h2.641a.827.827,0,0,0,.827-.827v-4.714h4.728A.828.828,0,0,0,145.59,139.215Z" transform="translate(375.982 847.221)" fill="url(#a)"/><path d="M.834,11.616H3.461a.827.827,0,0,0,.827-.827v-6.4h6.862a.827.827,0,0,0,.827-.827V.927A.827.827,0,0,0,11.149.1h-9A2.15,2.15,0,0,0,0,2.247v8.542A.837.837,0,0,0,.834,11.616Z" transform="translate(498 969.145)" fill="url(#a)"/><path d="M326.943,309h-2.627a.827.827,0,0,0-.827.827v7.022h-6.562a.827.827,0,0,0-.827.827V320.3a.827.827,0,0,0,.827.827h8.709a2.15,2.15,0,0,0,2.147-2.147v-9.149A.853.853,0,0,0,326.943,309Z" transform="translate(201.978 679.843)" fill="url(#a)"/><path d="M325.529.1h-8.7A.827.827,0,0,0,316,.927V3.554a.827.827,0,0,0,.827.827h6.562v6.4a.827.827,0,0,0,.827.827h2.627a.827.827,0,0,0,.827-.827V2.247A2.136,2.136,0,0,0,325.529.1Z" transform="translate(202.072 969.145)" fill="url(#a)"/></g></svg>