<svg xmlns="http://www.w3.org/2000/svg" xmlns:xlink="http://www.w3.org/1999/xlink" width="35" height="35.066" viewBox="0 0 35 35.066"><defs><linearGradient id="a" x1="0.5" x2="0.5" y2="1" gradientUnits="objectBoundingBox"><stop offset="0" stop-color="#af5ee5"/><stop offset="1" stop-color="#9208ec"/></linearGradient></defs><g transform="translate(-498 -827)"><rect width="35" height="35" transform="translate(498 827)" fill="none"/><path d="M222.966,273.845a1.62,1.62,0,0,0-.454-.33,5.485,5.485,0,0,0-1.151-.407v3.047a2.164,2.164,0,0,0,1.706-.9h0a1.392,1.392,0,0,0,.127-.951A.957.957,0,0,0,222.966,273.845Z" transform="translate(291.479 576.784)" fill="url(#a)"/><path d="M242.6,299.906l0-.006h0Z" transform="translate(271.938 552.14)" fill="url(#a)"/><path d="M181.647,212.862a1.143,1.143,0,0,0-.2.536,1.285,1.285,0,0,0,.065.592.95.95,0,0,0,.369.406,2.879,2.879,0,0,0,.548.283c.16.064.34.126.534.185v-2.757A2.1,2.1,0,0,0,181.647,212.862Z" transform="translate(328.198 632.896)" fill="url(#a)"/><path d="M242.66,299.619l-.013.022h0Z" transform="translate(271.898 552.398)" fill="url(#a)"/><path d="M243,299.246Z" transform="translate(271.57 552.743)" fill="url(#a)"/><path d="M52.151,7.412c2.591-2.177,4.323-7.081,3.257-7.3-1.416-.285-4.491.965-5.977,1.185-2.108.255-4.4-2.286-5.692-.87C42.691,1.583,44.49,5.77,47.3,7.594c-8.4,4.127-20.2,24.844.391,26.347C76.185,36.021,61.919,11.434,52.151,7.412ZM54.6,23.751a3,3,0,0,1-1.155,2.034,4.416,4.416,0,0,1-2.365.835v.892a.838.838,0,1,1-1.676,0v-.975c-.144-.027-.288-.06-.429-.1a4.114,4.114,0,0,1-2.05-1.261,3.7,3.7,0,0,1-.632-1.044c-.039-.1-.074-.2-.1-.3a1.555,1.555,0,0,1-.066-.284.838.838,0,0,1,1.629-.348c.032.1.054.2.089.291a1.867,1.867,0,0,0,.129.275,2.136,2.136,0,0,0,.368.471,2.494,2.494,0,0,0,1.066.581V21.5a5.964,5.964,0,0,1-2.2-.95,2.556,2.556,0,0,1-.742-.891,2.789,2.789,0,0,1-.259-1.2,2.858,2.858,0,0,1,.251-1.215,2.961,2.961,0,0,1,.688-.943,4.2,4.2,0,0,1,2.259-1v-.926a.838.838,0,1,1,1.676,0V15.3q.164.021.328.05a4.139,4.139,0,0,1,2.188,1.062,3.2,3.2,0,0,1,.67.963,3.071,3.071,0,0,1,.118.307,1.862,1.862,0,0,1,.079.3.838.838,0,0,1-1.611.424c-.035-.092-.053-.188-.088-.28a1.476,1.476,0,0,0-.137-.264,1.6,1.6,0,0,0-.4-.415,2.716,2.716,0,0,0-1.15-.449v3.173a10.639,10.639,0,0,1,1.431.425,3.346,3.346,0,0,1,1.747,1.368c-.059-.1-.117-.205,0,0s.061.107,0,0A2.989,2.989,0,0,1,54.6,23.751Z" transform="translate(461.762 828)" fill="url(#a)"/><path d="M242.35,300.169l-.013.022Z" transform="translate(272.183 551.892)" fill="url(#a)"/></g></svg>