<svg width="38" height="35" viewBox="0 0 38 35" fill="none" xmlns="http://www.w3.org/2000/svg">
<path d="M27.6132 7.66836C27.6132 6.91194 27.6429 6.14697 27.6132 5.39055C27.6132 5.382 27.6132 5.37346 27.6132 5.36491C27.6132 4.96747 27.3452 4.66404 26.9879 4.54011C25.516 4.02728 24.04 3.51446 22.5682 3.00163C20.2456 2.19393 17.9273 1.38195 15.6047 0.574247C15.09 0.394757 14.5796 0.189626 14.0564 0.0357783C13.7969 -0.0411458 13.6182 0.0186838 13.3928 0.0956079C13.129 0.189626 12.8611 0.279371 12.5973 0.373389C10.3726 1.1469 8.15213 1.92042 5.9274 2.69393C4.18761 3.30078 2.45207 3.90335 0.712272 4.5102C0.682496 4.51874 0.656973 4.53156 0.627196 4.54011C0.269879 4.66404 0.00189057 4.97174 0.00189057 5.36491V13.2838C0.00189057 14.9505 -0.00236321 16.6172 0.00189057 18.2839C0.00614435 19.6984 0.252864 21.1215 0.720779 22.4549C1.67788 25.2028 3.41767 27.6173 5.48926 29.6302C7.53533 31.6174 9.93021 33.2798 12.4995 34.502C12.793 34.6388 13.0865 34.7713 13.38 34.8995C13.397 34.908 13.4183 34.9166 13.4353 34.9251C13.4353 34.9251 13.4353 34.9251 13.4396 34.9251C13.4821 34.9422 13.5289 34.9593 13.5714 34.9721C13.7756 35.0277 14.0011 34.9978 14.2265 34.9038C14.2308 34.9038 14.235 34.8995 14.235 34.8995C16.8298 33.7926 19.2375 32.2285 21.3473 30.3524C23.4742 28.4592 25.3502 26.1558 26.4732 23.519C27.0517 22.1557 27.4345 20.7455 27.5621 19.2668C27.6302 18.4762 27.6047 17.677 27.6047 16.8822V7.66836H27.6132ZM21.3601 12.9163C21.007 13.271 20.654 13.6257 20.3009 13.9804C18.7696 15.5189 17.2425 17.0531 15.7111 18.5916C14.7455 19.5617 13.7756 20.536 12.81 21.5061C12.3208 21.9976 11.4913 21.9976 11.0064 21.5061C10.8107 21.3096 10.6151 21.113 10.4194 20.9164C9.04967 19.5403 7.67996 18.1642 6.30599 16.7839C5.79979 16.2753 5.83807 15.4847 6.30599 14.9719C6.7739 14.4633 7.63742 14.4975 8.10959 14.9719C8.30526 15.1685 8.50094 15.3693 8.69661 15.5659C9.76431 16.6386 10.832 17.7198 11.8997 18.7924C11.955 18.7369 12.0061 18.6856 12.0613 18.63C13.5927 17.0916 15.1198 15.5531 16.6512 14.0146C17.6168 13.0445 18.5866 12.0701 19.5523 11.1C20.0585 10.5915 20.8497 10.6299 21.3559 11.1C21.8663 11.5701 21.8323 12.4419 21.3601 12.9163Z" fill="url(#paint0_linear)"/>
<defs>
<linearGradient id="paint0_linear" x1="5.91994" y1="4.0446e-07" x2="19.9312" y2="29.6859" gradientUnits="userSpaceOnUse">
<stop stop-color="#61F46F"/>
<stop offset="1" stop-color="#16D0DC"/>
</linearGradient>
</defs>
</svg>
