<svg width="48" height="48" viewBox="0 0 48 48" fill="none" xmlns="http://www.w3.org/2000/svg">
<g clip-path="url(#clip0)">
<path d="M12.3801 19.9491L4.585 14.7385C4.48818 14.6741 4.36322 14.6679 4.26068 14.7228C4.15766 14.7776 4.09375 14.8849 4.09375 15.0013V24.4728C4.09375 24.5782 4.14621 24.6769 4.23397 24.7351L12.0295 29.9462C12.0825 29.981 12.1435 29.9991 12.205 29.9991C12.2561 29.9991 12.3071 29.9872 12.3538 29.9619C12.4564 29.907 12.5208 29.8002 12.5208 29.6838V20.2118C12.5203 20.106 12.4678 20.0077 12.3801 19.9491Z" fill="url(#paint0_linear)"/>
<path d="M12.3801 31.9497L4.585 26.7391C4.48818 26.6738 4.36322 26.668 4.26068 26.7229C4.15766 26.7777 4.09375 26.885 4.09375 27.0014V36.4725C4.09375 36.5783 4.14621 36.6771 4.23397 36.7357L12.0295 41.9467C12.0825 41.982 12.1435 41.9997 12.205 41.9997C12.2561 41.9997 12.3071 41.9873 12.3538 41.9625C12.4564 41.9076 12.5208 41.8008 12.5208 41.6844V32.2124C12.5203 32.107 12.4678 32.0083 12.3801 31.9497Z" fill="url(#paint1_linear)"/>
<path d="M21.7358 25.4684L13.9407 20.7315C13.843 20.6719 13.7213 20.6704 13.6217 20.7262C13.522 20.782 13.4609 20.887 13.4609 21.0014V30.4729C13.4609 30.5783 13.5134 30.6766 13.6012 30.7357L21.3962 35.9463C21.4492 35.9816 21.5102 35.9992 21.5717 35.9992C21.6228 35.9992 21.6738 35.9868 21.7206 35.962C21.8231 35.9072 21.8875 35.8003 21.8875 35.6835V25.7384C21.887 25.6277 21.8298 25.5261 21.7358 25.4684Z" fill="url(#paint2_linear)"/>
<path d="M21.7512 37.9501L13.9561 32.7401C13.8593 32.6747 13.7348 32.669 13.6318 32.7239C13.5288 32.7787 13.4648 32.886 13.4648 33.0024V42.4739C13.4648 42.5798 13.5173 42.678 13.6051 42.7367L21.4001 47.9477C21.4531 47.983 21.5141 48.0002 21.5756 48.0002C21.6267 48.0002 21.6777 47.9883 21.7245 47.9635C21.827 47.9086 21.8914 47.8013 21.8914 47.6849V38.2125C21.8914 38.1075 21.8389 38.0088 21.7512 37.9501Z" fill="url(#paint3_linear)"/>
<path d="M40.4568 14.7237C40.3561 14.6684 40.2321 14.6717 40.1358 14.7337L32.1509 19.7864C32.0574 19.8455 32.0016 19.949 32.004 20.0592L32.1928 29.6886C32.1952 29.8045 32.2606 29.9094 32.3626 29.9624C32.4084 29.9867 32.4585 29.9981 32.5086 29.9981C32.5701 29.9981 32.6312 29.98 32.6841 29.9452L40.4796 24.7342C40.5679 24.6755 40.6199 24.5772 40.6199 24.4718V15.0003C40.6199 14.8854 40.5574 14.779 40.4568 14.7237Z" fill="url(#paint4_linear)"/>
<path d="M40.4554 26.7229C40.3529 26.668 40.2279 26.6738 40.1311 26.7391L32.336 31.9497C32.2478 32.0083 32.1953 32.107 32.1953 32.212V41.684C32.1953 41.8003 32.2602 41.9072 32.3627 41.962C32.4095 41.9868 32.4605 41.9992 32.5115 41.9992C32.573 41.9992 32.6341 41.9811 32.687 41.9463L40.4826 36.7352C40.5703 36.6766 40.6228 36.5779 40.6228 36.472V27.0014C40.6223 26.885 40.5584 26.7782 40.4554 26.7229Z" fill="url(#paint5_linear)"/>
<path d="M31.0905 20.7261C30.9908 20.6703 30.8697 20.6722 30.771 20.7313L22.9764 25.4683C22.8819 25.5255 22.8242 25.6276 22.8242 25.7377V35.6838C22.8242 35.8006 22.8886 35.9075 22.9916 35.9623C23.0384 35.9871 23.0894 35.9995 23.1404 35.9995C23.202 35.9995 23.263 35.9819 23.3159 35.9466L31.111 30.736C31.1992 30.6769 31.2517 30.5787 31.2517 30.4733V21.0013C31.2517 20.8873 31.1902 20.7819 31.0905 20.7261Z" fill="url(#paint6_linear)"/>
<path d="M21.1956 14.211C21.1979 14.097 21.1393 13.9902 21.041 13.932L13.7262 9.58711C13.6342 9.53226 13.5207 9.52844 13.4243 9.57614L5.26487 13.6292C5.16281 13.6797 5.09603 13.7813 5.09031 13.8953C5.08411 14.0088 5.13991 14.1171 5.23578 14.1781L12.5258 18.8159C12.5773 18.8483 12.6364 18.865 12.6951 18.865C12.7461 18.865 12.7972 18.8531 12.8434 18.8283L21.0281 14.4829C21.1288 14.429 21.1932 14.3255 21.1956 14.211Z" fill="url(#paint7_linear)"/>
<path d="M14.813 9.5231L21.9609 13.6868C22.01 13.7159 22.0648 13.7297 22.1197 13.7297C22.1717 13.7297 22.2232 13.7168 22.2704 13.6915L29.9811 9.5045C30.0846 9.44822 30.1485 9.339 30.1461 9.2212C30.1442 9.10339 30.0764 8.99656 29.9715 8.9441L22.8141 5.38852C22.7283 5.3456 22.6276 5.34464 22.5408 5.38471L14.8392 8.96365C14.7324 9.01325 14.6618 9.1177 14.6566 9.23503C14.6513 9.35331 14.7114 9.46348 14.813 9.5231Z" fill="url(#paint8_linear)"/>
<path d="M30.1443 19.5862C30.1428 19.4717 30.0784 19.3668 29.9769 19.3124L22.2734 15.2041C22.1803 15.1545 22.0678 15.1545 21.9748 15.205L14.3462 19.3372C14.2446 19.3921 14.1811 19.4975 14.1807 19.6129C14.1802 19.7278 14.2422 19.8347 14.3423 19.8909L22.0897 24.2125C22.1374 24.2397 22.1904 24.2525 22.2438 24.2525C22.2977 24.2525 22.352 24.2392 22.4012 24.2106L29.9859 19.8657C30.0856 19.808 30.1462 19.7011 30.1443 19.5862Z" fill="url(#paint9_linear)"/>
<path d="M43.8532 0.133736C43.7869 0.0397787 43.6772 -0.00982282 43.5618 0.00162369L34.8806 0.940238C34.7752 0.951684 34.6821 1.01512 34.634 1.10907L30.652 8.81735C30.6 8.91989 30.6062 9.04294 30.6706 9.13833C30.7293 9.22608 30.828 9.27807 30.9329 9.27807C30.943 9.27807 30.9515 9.27759 30.9616 9.27664L39.7973 8.49017C39.9075 8.48015 40.0048 8.41338 40.0534 8.3137L43.8794 0.453284C43.9295 0.350742 43.919 0.228646 43.8532 0.133736Z" fill="url(#paint10_linear)"/>
<path d="M31.0848 32.7239C30.9818 32.669 30.8568 32.6747 30.76 32.7401L22.9649 37.9506C22.8767 38.0093 22.8242 38.108 22.8242 38.2129V47.6849C22.8242 47.8013 22.8886 47.9086 22.9916 47.9635C23.0384 47.9883 23.0894 48.0002 23.1404 48.0002C23.202 48.0002 23.263 47.9825 23.3159 47.9477L31.111 42.7367C31.1992 42.678 31.2517 42.5793 31.2517 42.4739V33.0024C31.2517 32.886 31.1873 32.7792 31.0848 32.7239Z" fill="url(#paint11_linear)"/>
</g>
<defs>
<linearGradient id="paint0_linear" x1="8.30726" y1="14.6855" x2="8.30726" y2="29.9991" gradientUnits="userSpaceOnUse">
<stop stop-color="#298AFC"/>
<stop offset="1" stop-color="#0ED0FB"/>
</linearGradient>
<linearGradient id="paint1_linear" x1="8.30726" y1="26.6855" x2="8.30726" y2="41.9997" gradientUnits="userSpaceOnUse">
<stop stop-color="#298AFC"/>
<stop offset="1" stop-color="#0ED0FB"/>
</linearGradient>
<linearGradient id="paint2_linear" x1="17.6742" y1="20.6855" x2="17.6742" y2="35.9992" gradientUnits="userSpaceOnUse">
<stop stop-color="#298AFC"/>
<stop offset="1" stop-color="#0ED0FB"/>
</linearGradient>
<linearGradient id="paint3_linear" x1="17.6781" y1="32.6865" x2="17.6781" y2="48.0002" gradientUnits="userSpaceOnUse">
<stop stop-color="#298AFC"/>
<stop offset="1" stop-color="#0ED0FB"/>
</linearGradient>
<linearGradient id="paint4_linear" x1="36.3119" y1="14.6846" x2="36.3119" y2="29.9981" gradientUnits="userSpaceOnUse">
<stop stop-color="#298AFC"/>
<stop offset="1" stop-color="#0ED0FB"/>
</linearGradient>
<linearGradient id="paint5_linear" x1="36.4091" y1="26.6855" x2="36.4091" y2="41.9992" gradientUnits="userSpaceOnUse">
<stop stop-color="#298AFC"/>
<stop offset="1" stop-color="#0ED0FB"/>
</linearGradient>
<linearGradient id="paint6_linear" x1="27.038" y1="20.6855" x2="27.038" y2="35.9995" gradientUnits="userSpaceOnUse">
<stop stop-color="#298AFC"/>
<stop offset="1" stop-color="#0ED0FB"/>
</linearGradient>
<linearGradient id="paint7_linear" x1="13.1427" y1="9.54297" x2="13.1427" y2="18.865" gradientUnits="userSpaceOnUse">
<stop stop-color="#298AFC"/>
<stop offset="1" stop-color="#0ED0FB"/>
</linearGradient>
<linearGradient id="paint8_linear" x1="22.4012" y1="5.35547" x2="22.4012" y2="13.7297" gradientUnits="userSpaceOnUse">
<stop stop-color="#298AFC"/>
<stop offset="1" stop-color="#0ED0FB"/>
</linearGradient>
<linearGradient id="paint9_linear" x1="22.1625" y1="15.167" x2="22.1625" y2="24.2525" gradientUnits="userSpaceOnUse">
<stop stop-color="#298AFC"/>
<stop offset="1" stop-color="#0ED0FB"/>
</linearGradient>
<linearGradient id="paint10_linear" x1="37.264" y1="0" x2="37.264" y2="9.27807" gradientUnits="userSpaceOnUse">
<stop stop-color="#298AFC"/>
<stop offset="1" stop-color="#0ED0FB"/>
</linearGradient>
<linearGradient id="paint11_linear" x1="27.038" y1="32.6865" x2="27.038" y2="48.0002" gradientUnits="userSpaceOnUse">
<stop stop-color="#298AFC"/>
<stop offset="1" stop-color="#0ED0FB"/>
</linearGradient>
<clipPath id="clip0">
<rect width="48" height="48" fill="white"/>
</clipPath>
</defs>
</svg>
